<?xml version="1.0" standalone="no"?>
<!DOCTYPE svg PUBLIC "-//W3C//DTD SVG 1.1//EN" "http://www.w3.org/Graphics/SVG/1.1/DTD/svg11.dtd" >
<svg xmlns="http://www.w3.org/2000/svg" xmlns:xlink="http://www.w3.org/1999/xlink" version="1.1">
<metadata>
Created by FontForge 20170731 at Fri Jan  1 02:30:17 1904
 By Aleksey,,,
Copyright (c) 1992 Adobe Systems Incorporated. All Rights Reserved.Helvetica is a trademark of Linotype-Hell AG and/or its subsidiaries.
</metadata>
<defs>
<font id="BMWHelveticaBold" horiz-adv-x="1245" >
  <font-face 
    font-family="BMW Helvetica"
    font-weight="700"
    font-stretch="normal"
    units-per-em="2048"
    panose-1="2 11 8 0 0 0 0 0 0 0"
    ascent="1638"
    descent="-410"
    x-height="1118"
    cap-height="1544"
    bbox="-367 -471 2341 2107"
    underline-thickness="50"
    underline-position="-175"
    unicode-range="U+0020-F002"
  />
<missing-glyph horiz-adv-x="1536" 
d="M256 0v1280h1024v-1280h-1024zM1248 32v1216h-960v-1216h960z" />
    <glyph glyph-name=".notdef" horiz-adv-x="1536" 
d="M256 0v1280h1024v-1280h-1024zM1248 32v1216h-960v-1216h960z" />
    <glyph glyph-name=".null" horiz-adv-x="0" 
 />
    <glyph glyph-name="nonmarkingreturn" horiz-adv-x="0" 
 />
    <glyph glyph-name="space" unicode=" " horiz-adv-x="623" 
 />
    <glyph glyph-name="exclam" unicode="!" horiz-adv-x="623" 
d="M471 1544v-416l-84 -665h-154l-81 665v416h319zM141 0v334h340v-334h-340z" />
    <glyph glyph-name="quotedbl" unicode="&#x22;" horiz-adv-x="958" 
d="M563 850v694h234v-694h-234zM162 850v694h233v-694h-233z" />
    <glyph glyph-name="numbersign" unicode="#" 
d="M211 0l59 428h-178v195h205l39 268h-178v194h204l60 428h211l-62 -428h211l58 428h211l-60 -428h162v-194h-190l-37 -268h161v-195h-188l-59 -428h-209l57 428h-207l-61 -428h-209zM754 891h-207l-39 -268h209z" />
    <glyph glyph-name="dollar" unicode="$" 
d="M559 975v352q-49 0 -94.5 -20.5t-72.5 -61.5t-27 -96q0 -70 43.5 -109t150.5 -65zM686 631v-414q93 9 162.5 61.5t69.5 149.5q0 84 -49.5 126t-182.5 77zM20 502h308q0 -77 29.5 -137.5t83 -98t118.5 -49.5v451q-33 12 -70 20q-130 34 -222 79t-151 131.5t-59 219.5
q0 140 69 242.5t185 157.5t248 63v166h127v-166q207 -23 341 -136t147 -325h-308q-2 58 -26 105t-64.5 74.5t-89.5 27.5v-383q88 -20 111 -26q274 -76 351 -206.5t77 -295.5q0 -53 -25.5 -124t-87 -143.5t-168 -123.5t-258.5 -62v-184h-127v184q-159 12 -274 75.5t-182 180
t-83 283.5z" />
    <glyph glyph-name="percent" unicode="%" horiz-adv-x="2097" 
d="M129 1116q0 91 22.5 168.5t68.5 136t116 91t162 32.5q189 0 271.5 -119t82.5 -317q0 -123 -40 -214.5t-122.5 -142.5t-204.5 -51q-187 0 -271.5 112.5t-84.5 303.5zM350 1112q0 -109 23.5 -179.5t113.5 -70.5q62 0 94.5 40t41 93t8.5 115q0 272 -133 272q-92 0 -120 -79
t-28 -191zM1245 395q0 120 39.5 215t123 149t204.5 54q189 0 272.5 -115t83.5 -311q0 -187 -92.5 -302.5t-273.5 -115.5q-189 0 -273 116.5t-84 309.5zM1466 393q0 -111 24.5 -186.5t113.5 -75.5q143 0 143 260t-135 260q-64 0 -96 -40.5t-41 -95.5t-9 -122zM516 -47
l895 1608h184l-890 -1608h-189z" />
    <glyph glyph-name="ampersand" unicode="&#x26;" horiz-adv-x="1550" 
d="M860 1208q0 39 -19 73.5t-50.5 54.5t-69.5 20q-57 0 -98 -38.5t-41 -98.5q0 -34 10 -62.5t28.5 -59t36 -52.5t45.5 -58q55 36 86.5 63.5t51.5 66t20 91.5zM877 358l-265 324q-93 -41 -155 -105.5t-62 -150.5q0 -55 31 -102t82 -74t108 -27q53 0 99 17t83 44.5t79 73.5z
M1163 0l-125 154q-188 -185 -434 -185q-140 0 -254 55.5t-180 161t-66 246.5q0 153 97 265.5t250 183.5q-73 88 -110.5 163.5t-37.5 163.5q0 102 57 183.5t149.5 125.5t195.5 44q118 0 214.5 -42t152.5 -125.5t56 -201.5q0 -86 -35 -158.5t-97.5 -129t-141.5 -97.5l199 -244
q39 71 57 182h266q-12 -104 -50 -203.5t-99 -176.5l313 -365h-377z" />
    <glyph glyph-name="quotesingle" unicode="'" horiz-adv-x="528" 
d="M147 850v694h234v-694h-234z" />
    <glyph glyph-name="parenleft" unicode="(" horiz-adv-x="645" 
d="M401 1581h258q-62 -122 -104 -235t-72.5 -242t-44.5 -254.5t-14 -247.5q0 -258 57 -509t176 -486h-256q-68 114 -119.5 231.5t-88.5 241t-56.5 250t-19.5 250.5q0 167 32 346.5t96 350.5t156 304z" />
    <glyph glyph-name="parenright" unicode=")" horiz-adv-x="645" 
d="M242 -393h-256q235 448 235 977q0 265 -58 516.5t-175 480.5h254q88 -148 153 -311t99 -332t34 -332q0 -161 -32.5 -343.5t-97 -353t-156.5 -302.5z" />
    <glyph glyph-name="asterisk" unicode="*" horiz-adv-x="903" 
d="M535 1544v-270l251 94l58 -166l-254 -84l160 -213l-144 -104l-160 221l-151 -221l-143 104l159 213l-252 84l60 166l243 -94v270h173z" />
    <glyph glyph-name="plus" unicode="+" horiz-adv-x="1352" 
d="M793 1092v-430h428v-232h-428v-430h-232v430h-430v232h430v430h232z" />
    <glyph glyph-name="comma" unicode="," horiz-adv-x="623" 
d="M141 0v334h340v-334q0 -143 -96.5 -240.5t-241.5 -117.5v155q67 12 110.5 69t43.5 134h-156z" />
    <glyph glyph-name="hyphen" unicode="-" horiz-adv-x="901" 
d="M125 459v264h651v-264h-651z" />
    <glyph glyph-name="period" unicode="." horiz-adv-x="623" 
d="M141 0v334h340v-334h-340z" />
    <glyph glyph-name="slash" unicode="/" horiz-adv-x="819" 
d="M-16 -37l606 1618h246l-605 -1618h-247z" />
    <glyph glyph-name="zero" unicode="0" 
d="M68 764q0 214 42.5 364.5t119 242t175.5 132.5t216 41q120 0 220 -40.5t175.5 -131t118.5 -243.5t43 -365q0 -217 -43 -372.5t-118.5 -247.5t-175.5 -133.5t-220 -41.5q-117 0 -216 41.5t-176 135.5t-119 246.5t-42 371.5zM375 764q0 -136 12.5 -248t67.5 -202.5
t166 -90.5q113 0 168.5 91t68 202.5t12.5 247.5q0 92 -5.5 173.5t-28 161t-75.5 135.5t-140 56q-85 0 -136.5 -55t-75 -138.5t-29 -162t-5.5 -170.5z" />
    <glyph glyph-name="one" unicode="1" 
d="M872 1513v-1513h-307v981h-381v231q180 0 301.5 70t143.5 231h243z" />
    <glyph glyph-name="two" unicode="2" 
d="M395 932h-295q0 180 64 318.5t187.5 216t297.5 77.5q105 0 199 -32t166.5 -93.5t113.5 -150t41 -197.5t-35 -192t-92 -143.5t-143 -123.5q-53 -37 -116.5 -77.5t-124 -83t-107.5 -85t-90 -102.5h719v-264h-1114q1 163 62 281t156 201t259 194q44 30 106 71t108 83.5
t75.5 97t29.5 119.5q0 106 -63.5 169.5t-163.5 63.5q-84 0 -138.5 -51t-78 -129t-23.5 -168z" />
    <glyph glyph-name="three" unicode="3" 
d="M516 686v215q16 -2 49 -2q73 0 133 17t100 60t40 114q0 61 -30 107t-79 69.5t-104 23.5q-113 0 -174.5 -75t-61.5 -195h-291q6 156 71 274t182 184t270 66q93 0 184 -27.5t164 -81t117 -133t44 -178.5q0 -111 -54 -195.5t-158 -113.5v-4q122 -27 194 -121.5t72 -222.5
q0 -154 -77 -267t-205.5 -172t-276.5 -59q-257 0 -410.5 145t-153.5 406h293q5 -131 72 -214t192 -83q70 0 126 29.5t88 84.5t32 124q0 104 -51 153t-121.5 60.5t-175.5 11.5z" />
    <glyph glyph-name="four" unicode="4" 
d="M696 0v350h-639v281l658 882h274v-909h199v-254h-199v-350h-293zM696 604v524h-6l-391 -524h397z" />
    <glyph glyph-name="five" unicode="5" 
d="M1104 1513v-251h-625l-61 -344l4 -5q114 117 297 117q112 0 199 -40t146 -109.5t89.5 -163t30.5 -203.5q0 -149 -75 -274.5t-202.5 -198t-281.5 -72.5q-149 0 -278 55t-206 164t-80 263h308q10 -101 78.5 -164.5t168.5 -63.5q78 0 137 40t91.5 106.5t32.5 144.5
q0 122 -70.5 203.5t-190.5 81.5q-78 0 -130 -28.5t-101 -94.5h-276l149 837h846z" />
    <glyph glyph-name="six" unicode="6" 
d="M1153 1124h-291q-11 54 -39 96t-70.5 67.5t-95.5 25.5q-102 0 -165 -74.5t-90 -178t-33 -208.5l4 -4q61 88 145 128t197 40q101 0 188.5 -38.5t147.5 -105.5t93.5 -156.5t33.5 -193.5q0 -153 -67 -279.5t-187.5 -200t-274.5 -73.5q-216 0 -346 110.5t-182.5 285.5
t-52.5 387q0 146 34 286t106 255t186 183t270 68q128 0 234 -49.5t171.5 -144.5t83.5 -226zM641 784q-80 0 -135 -38t-82 -101.5t-27 -140.5q0 -72 29.5 -137t85 -104.5t129.5 -39.5q105 0 167 83t62 194q0 117 -59 200.5t-170 83.5z" />
    <glyph glyph-name="seven" unicode="7" 
d="M1139 1513v-264q-149 -131 -261.5 -346t-171.5 -455.5t-61 -447.5h-328q13 166 53.5 332t106.5 324.5t152 299.5t196 273h-719v284h1033z" />
    <glyph glyph-name="eight" unicode="8" 
d="M360 459q0 -114 78 -186t191 -72q73 0 131 32t91.5 90t33.5 134q0 70 -34.5 125.5t-94 85.5t-127.5 30q-116 0 -192.5 -64t-76.5 -175zM115 1130q0 130 74 224t193.5 142t244.5 48q170 0 284.5 -66.5t166.5 -161t52 -179.5q0 -115 -56 -198.5t-163 -119.5v-4
q133 -30 207 -128t74 -243q0 -113 -47 -203t-128 -150.5t-180.5 -91t-207.5 -30.5q-153 0 -284.5 52t-211.5 159t-80 262q0 96 34.5 172.5t99.5 128t151 72.5v4q-109 31 -166 114t-57 197zM395 1102q0 -93 67 -146t165 -53q96 0 159.5 52.5t63.5 146.5q0 48 -18.5 95.5
t-69 81.5t-135.5 34q-97 0 -164.5 -57t-67.5 -154z" />
    <glyph glyph-name="nine" unicode="9" 
d="M92 389h291q16 -79 72 -133.5t133 -54.5q102 0 165 74.5t90.5 177.5t33.5 209l-5 4q-62 -87 -145 -127.5t-197 -40.5q-133 0 -239.5 65.5t-164.5 178.5t-58 249q0 117 38 217.5t109 175.5t167.5 117.5t213.5 42.5q315 0 448.5 -223.5t133.5 -558.5q0 -146 -33.5 -286.5
t-106 -255.5t-186.5 -183t-268 -68q-198 0 -331.5 111t-160.5 309zM604 729q116 0 180 81t64 200q0 71 -29.5 136t-85 104.5t-129.5 39.5q-70 0 -122 -39.5t-79.5 -103.5t-27.5 -133q0 -117 59 -201t170 -84z" />
    <glyph glyph-name="colon" unicode=":" horiz-adv-x="623" 
d="M141 0v334h340v-334h-340zM481 1098v-332h-340v332h340z" />
    <glyph glyph-name="semicolon" unicode=";" horiz-adv-x="623" 
d="M141 0v334h340v-334q-1 -96 -45.5 -173t-120.5 -124t-172 -61v155q67 12 110.5 69t43.5 134h-156zM481 1098v-332h-340v332h340z" />
    <glyph glyph-name="less" unicode="&#x3c;" horiz-adv-x="1352" 
d="M1225 1112v-250l-795 -315l795 -316v-247l-1098 436v254z" />
    <glyph glyph-name="equal" unicode="=" horiz-adv-x="1352" 
d="M1221 893v-231h-1090v231h1090zM1221 430v-231h-1090v231h1090z" />
    <glyph glyph-name="greater" unicode="&#x3e;" horiz-adv-x="1352" 
d="M127 -16v247l793 316l-793 315v250l1098 -438v-254z" />
    <glyph glyph-name="question" unicode="?" horiz-adv-x="1178" 
d="M375 1047h-318q3 119 40 215t106 168t165.5 111.5t213.5 39.5q190 0 311 -66t174 -161.5t53 -190.5q0 -140 -46.5 -219t-133.5 -145q-64 -47 -86 -63.5t-50 -44.5t-48 -63.5t-29 -82.5v-82h-291v96q5 87 32 150.5t65.5 106.5t89.5 83q86 68 121.5 112t35.5 122
q0 97 -47 145.5t-135 48.5q-75 0 -124.5 -37t-73 -98.5t-25.5 -144.5zM406 0v334h339v-334h-339z" />
    <glyph glyph-name="at" unicode="@" horiz-adv-x="1817" 
d="M672 690q0 -86 47 -139t123 -53q75 0 135.5 49t94.5 124.5t34 151.5q0 80 -47 132.5t-119 52.5q-74 0 -136 -49t-97 -122.5t-35 -146.5zM1389 1178l-138 -557q-16 -58 -16 -93q0 -51 37 -51q62 0 121 52.5t96 143.5t37 204q0 126 -44.5 226t-123 167t-186.5 102t-232 35
q-182 0 -321.5 -83t-215 -229.5t-75.5 -326.5q0 -139 47 -255.5t133 -201t204.5 -129.5t254.5 -45q92 0 176.5 20.5t157 59.5t131.5 96h180q-71 -110 -174.5 -189t-227 -120t-258.5 -41q-226 0 -417 106t-302.5 291t-111.5 412q0 223 111.5 409.5t301 293t408.5 106.5
q149 0 285.5 -47.5t242 -135t166 -209t60.5 -267.5q0 -156 -55.5 -275.5t-139.5 -198t-169 -116t-144 -37.5q-67 0 -111 34t-49 89h-4q-35 -60 -98 -92.5t-135 -32.5q-89 0 -167.5 50t-124.5 135.5t-46 183.5q0 138 59 265.5t167.5 206t244.5 78.5q80 0 149 -37t103 -114
l34 117h179z" />
    <glyph glyph-name="A" unicode="A" horiz-adv-x="1552" 
d="M20 0l586 1544h348l578 -1544h-352l-119 344h-576l-123 -344h-342zM774 1163l-201 -567h400l-195 567h-4z" />
    <glyph glyph-name="B" unicode="B" horiz-adv-x="1575" 
d="M524 688v-424h363q250 0 250 203q0 113 -64.5 167t-179.5 54h-369zM184 0v1544h727q151 0 261 -37t170.5 -122t60.5 -224q0 -222 -209 -321q94 -29 157 -83.5t94.5 -132.5t31.5 -175q0 -152 -76 -253t-200.5 -148.5t-268.5 -47.5h-748zM524 1280v-360h342q97 0 153 44.5
t56 137.5q0 178 -233 178h-318z" />
    <glyph glyph-name="C" unicode="C" horiz-adv-x="1642" 
d="M1530 1024h-330q-11 77 -58 138t-121.5 96.5t-156.5 35.5q-146 0 -240 -73t-137 -193t-43 -262q0 -137 43.5 -255t138 -190.5t238.5 -72.5q151 0 240.5 94t109.5 252h328q-12 -139 -66 -257t-145 -202.5t-209.5 -128t-257.5 -43.5q-232 0 -405 105.5t-264 289t-91 408.5
q0 170 51.5 320.5t151 261.5t240 172t317.5 61q170 0 315 -65.5t237.5 -191.5t113.5 -300z" />
    <glyph glyph-name="D" unicode="D" horiz-adv-x="1655" 
d="M184 0v1544h666q202 0 361 -85.5t249 -258t90 -420.5q0 -228 -78.5 -404.5t-236.5 -276t-385 -99.5h-666zM524 1257v-972h301q106 0 192.5 46.5t139.5 150.5t53 266q0 126 -23 217.5t-73 156.5t-135.5 100t-212.5 35h-242z" />
    <glyph glyph-name="E" unicode="E" horiz-adv-x="1464" 
d="M184 0v1544h1155v-287h-815v-329h748v-264h-748v-379h832v-285h-1172z" />
    <glyph glyph-name="F" unicode="F" horiz-adv-x="1335" 
d="M184 0v1544h1086v-287h-746v-356h645v-264h-645v-637h-340z" />
    <glyph glyph-name="G" unicode="G" horiz-adv-x="1686" 
d="M1323 0l-35 176q-57 -73 -127 -121t-146 -70t-151 -22q-232 0 -405 105.5t-264 289t-91 408.5q0 170 51.5 320.5t151 261.5t240 172t317.5 61q120 0 231.5 -36.5t200 -105t147 -172.5t70.5 -231h-323q-19 83 -65.5 141.5t-113.5 87.5t-147 29q-146 0 -240 -73t-137 -193
t-43 -262q0 -137 43.5 -255t138 -190.5t238.5 -72.5q110 0 188.5 38.5t124 114.5t54.5 181h-342v254h649v-836h-215z" />
    <glyph glyph-name="H" unicode="H" horiz-adv-x="1671" 
d="M184 0v1544h340v-592h625v592h338v-1544h-338v666h-625v-666h-340z" />
    <glyph glyph-name="I" unicode="I" horiz-adv-x="709" 
d="M184 0v1544h340v-1544h-340z" />
    <glyph glyph-name="J" unicode="J" horiz-adv-x="1251" 
d="M1067 1544v-1057q0 -93 -17.5 -179t-70.5 -165.5t-157.5 -129.5t-268.5 -50q-134 0 -250.5 51t-187 159t-70.5 267v135h307v-69q0 -125 43 -191.5t154 -66.5q82 0 121 37t48 89t9 128v1042h340z" />
    <glyph glyph-name="K" unicode="K" horiz-adv-x="1610" 
d="M184 0v1544h340v-641l602 641h424l-602 -610l662 -934h-426l-465 694l-195 -196v-498h-340z" />
    <glyph glyph-name="L" unicode="L" horiz-adv-x="1335" 
d="M184 0v1544h340v-1259h752v-285h-1092z" />
    <glyph glyph-name="M" unicode="M" horiz-adv-x="2032" 
d="M184 0v1544h478l360 -1063h6l340 1063h479v-1544h-317v1094h-6l-377 -1094h-262l-379 1083h-4v-1083h-318z" />
    <glyph glyph-name="N" unicode="N" horiz-adv-x="1671" 
d="M184 0v1544h338l643 -1036h4v1036h318v-1544h-338l-643 1034h-4v-1034h-318z" />
    <glyph glyph-name="O" unicode="O" horiz-adv-x="1729" 
d="M104 766q0 170 51.5 320.5t151 261.5t240 172t317.5 61q178 0 318.5 -61t239.5 -172t150.5 -259.5t51.5 -322.5q0 -168 -51.5 -314t-151 -257t-239.5 -171.5t-318 -60.5q-232 0 -405 105.5t-264 289t-91 408.5zM444 766q0 -137 43.5 -255t138 -190.5t238.5 -72.5
t238.5 72.5t138 190.5t43.5 255q0 142 -43 262t-137 193t-240 73t-240 -73t-137 -193t-43 -262z" />
    <glyph glyph-name="P" unicode="P" horiz-adv-x="1487" 
d="M184 0v1544h697q183 0 303 -68.5t175.5 -180.5t55.5 -246t-55.5 -246t-175.5 -181t-303 -69h-357v-553h-340zM524 1280v-463h262q88 0 153.5 18t105.5 70t40 144q0 135 -80 183t-219 48h-262z" />
    <glyph glyph-name="Q" unicode="Q" horiz-adv-x="1729" 
d="M1614 23l-158 -168l-219 198q-158 -90 -373 -90q-232 0 -405 105.5t-264 289t-91 408.5q0 170 51.5 320.5t151 261.5t240 172t317.5 61t317.5 -61t239.5 -172t151 -261t52 -321q0 -341 -203 -569zM854 401l160 170l174 -159q96 130 96 354q0 142 -43 262t-137 193
t-240 73t-240 -73t-137 -193t-43 -262q0 -137 43.5 -255t138 -190.5t238.5 -72.5q53 0 87 4t48 18z" />
    <glyph glyph-name="R" unicode="R" horiz-adv-x="1636" 
d="M184 0v1544h832q134 0 237 -57t159 -154t56 -215q0 -140 -59 -237.5t-184 -149.5v-4q113 -29 163.5 -127t59.5 -235q4 -63 8 -131t17.5 -132.5t39.5 -101.5h-339q-18 41 -26.5 99.5t-15 144.5t-12.5 127q-13 83 -40.5 133.5t-80.5 75t-137 24.5h-338v-604h-340zM524 1280
v-434h371q116 0 174.5 51.5t58.5 167.5q0 215 -233 215h-371z" />
    <glyph glyph-name="S" unicode="S" horiz-adv-x="1466" 
d="M84 512h328q1 -97 47 -161.5t124 -94t173 -29.5q115 0 207 44t92 149q0 60 -37.5 100t-98.5 64.5t-145.5 45.5t-175.5 44q-105 29 -181 58.5t-141 79.5t-102 125.5t-37 176.5q0 150 82.5 256t217 158.5t278.5 52.5q167 0 308 -51.5t225.5 -164.5t84.5 -282h-329
q-7 130 -88.5 182t-217.5 52q-94 0 -163.5 -42.5t-69.5 -133.5q0 -45 18.5 -73t66 -50t147.5 -49.5t229 -61.5q64 -14 134 -36.5t145.5 -71t126 -133t50.5 -207.5q0 -106 -41 -196t-124 -158.5t-201 -105t-275 -36.5q-128 0 -248.5 33.5t-212 101.5t-144 172t-52.5 242z" />
    <glyph glyph-name="T" unicode="T" horiz-adv-x="1341" 
d="M502 0v1257h-463v287h1264v-287h-463v-1257h-338z" />
    <glyph glyph-name="U" unicode="U" horiz-adv-x="1688" 
d="M1503 1544v-960q0 -156 -45 -272.5t-130.5 -194t-207.5 -116t-276 -38.5q-156 0 -278 37.5t-208 116t-130 195t-44 272.5v960h340v-960q0 -153 67 -244.5t253 -91.5q118 0 188.5 35.5t100.5 109.5t30 191v960h340z" />
    <glyph glyph-name="V" unicode="V" horiz-adv-x="1421" 
d="M1409 1544l-514 -1544h-383l-500 1544h350l343 -1085h6l348 1085h350z" />
    <glyph glyph-name="W" unicode="W" horiz-adv-x="2068" 
d="M2048 1544l-414 -1544h-338l-262 1051h-4l-256 -1051h-344l-410 1544h340l244 -1050h4l269 1050h317l264 -1065h4l254 1065h332z" />
    <glyph glyph-name="X" unicode="X" horiz-adv-x="1507" 
d="M20 0l541 809l-498 735h394l303 -493l313 493h371l-494 -737l537 -807h-404l-338 535l-342 -535h-383z" />
    <glyph glyph-name="Y" unicode="Y" horiz-adv-x="1397" 
d="M526 0v602l-569 942h383l362 -610l359 610h379l-574 -952v-592h-340z" />
    <glyph glyph-name="Z" unicode="Z" horiz-adv-x="1462" 
d="M80 0v268l829 989h-764v287h1215v-268l-828 -991h850v-285h-1302z" />
    <glyph glyph-name="bracketleft" unicode="[" horiz-adv-x="731" 
d="M154 -393v1974h571v-242h-264v-1491h264v-241h-571z" />
    <glyph glyph-name="backslash" unicode="\" horiz-adv-x="819" 
d="M231 1581l605 -1618h-246l-606 1618h247z" />
    <glyph glyph-name="bracketright" unicode="]" horiz-adv-x="731" 
d="M578 1581v-1974h-572v241h264v1491h-264v242h572z" />
    <glyph glyph-name="asciicircum" unicode="^" horiz-adv-x="1352" 
d="M160 682l370 831h289l373 -831h-252l-264 594l-262 -594h-254z" />
    <glyph glyph-name="underscore" unicode="_" horiz-adv-x="1024" 
d="M1024 -256h-1024v102h1024v-102z" />
    <glyph glyph-name="grave" unicode="`" horiz-adv-x="600" 
d="M250 1255l-334 308h340l207 -308h-213z" />
    <glyph glyph-name="a" unicode="a" horiz-adv-x="1272" 
d="M827 432v115q-15 -14 -41 -23.5t-69 -17.5t-76 -13t-70 -12q-84 -16 -132 -52t-48 -112q0 -141 189 -141q154 0 200.5 81t46.5 175zM426 774h-307q7 136 82.5 220t191.5 119.5t250 35.5q208 0 350 -68.5t142 -251.5v-581q0 -187 39 -248h-312q-20 70 -22 109
q-67 -72 -166 -106t-209 -34q-169 0 -275 86t-106 250q0 170 102.5 243t278.5 97q92 12 180 23.5t135 37.5t47 85q0 91 -50.5 121t-147.5 30q-189 0 -203 -168z" />
    <glyph glyph-name="b" unicode="b" horiz-adv-x="1370" 
d="M143 0v1544h308v-563h4q55 84 148.5 126t203.5 42q89 0 170 -35.5t147.5 -108.5t106 -185.5t39.5 -260.5q0 -194 -67 -327.5t-172.5 -198t-223.5 -64.5q-274 0 -367 174h-4v-143h-293zM963 557q0 96 -28 178.5t-88 132.5t-147 50q-86 0 -145 -50t-87 -132.5t-28 -178.5
q0 -150 66 -253t194 -103q129 0 196 103t67 253z" />
    <glyph glyph-name="c" unicode="c" horiz-adv-x="1305" 
d="M1196 725h-299q-15 94 -73.5 143.5t-153.5 49.5q-91 0 -150.5 -54t-85.5 -136.5t-26 -174.5q0 -87 25 -167.5t82.5 -132.5t148.5 -52q102 0 164.5 61t78.5 166h297q-19 -146 -91 -249.5t-186.5 -156.5t-260.5 -53q-125 0 -228 41t-180 119.5t-117.5 183t-40.5 230.5
q0 174 67.5 312.5t197 216t307.5 77.5q99 0 192.5 -27.5t164.5 -79.5t116 -133.5t51 -183.5z" />
    <glyph glyph-name="d" unicode="d" horiz-adv-x="1370" 
d="M1227 1544v-1544h-293v143h-4q-93 -174 -367 -174q-118 0 -223.5 64.5t-172.5 198t-67 327.5q0 148 39.5 260.5t106 185.5t148.5 108.5t169 35.5q69 0 135.5 -18t122.5 -55t94 -95h5v563h307zM408 557q0 -150 66.5 -253t195.5 -103q86 0 145 49.5t87 130.5t28 176
q0 96 -28 178.5t-87 132.5t-145 50q-87 0 -146.5 -49.5t-87.5 -132.5t-28 -179z" />
    <glyph glyph-name="e" unicode="e" horiz-adv-x="1315" 
d="M1212 483h-804q6 -142 75 -212t199 -70q87 0 156.5 45t85.5 100h270q-63 -193 -195 -285t-329 -92q-130 0 -236 43t-181 122t-114 188t-39 235q0 164 72 300.5t202 214t296 77.5q131 0 234 -48.5t171.5 -133t103.5 -193.5t35 -235q0 -37 -2 -56zM408 680h497
q-20 122 -76.5 180t-166.5 58q-130 0 -190 -75.5t-64 -162.5z" />
    <glyph glyph-name="f" unicode="f" horiz-adv-x="731" 
d="M190 0v913h-184v205h184v86q0 99 42 176.5t126 120.5t205 43q41 0 88.5 -3.5t75.5 -4.5v-229q-55 6 -113 6q-61 0 -88.5 -29.5t-27.5 -97.5v-68h211v-205h-211v-913h-308z" />
    <glyph glyph-name="g" unicode="g" horiz-adv-x="1354" 
d="M1210 1118v-1046q0 -119 -43 -228.5t-171 -188.5t-365 -79q-115 0 -227 38.5t-186 119.5t-81 200h305q39 -153 230 -153q124 0 185 75.5t61 202.5v146h-5q-48 -84 -138.5 -128t-196.5 -44q-122 0 -211.5 42.5t-149 119t-88.5 179t-29 220.5q0 108 32 210t93.5 179.5
t151 121.5t205.5 44q112 0 195.5 -43t135.5 -137h5v149h292zM655 264q82 0 142.5 43t90.5 114t30 152q0 96 -24.5 173.5t-84 124.5t-154.5 47q-122 0 -184.5 -92t-62.5 -228q0 -61 13 -120.5t42.5 -108t77.5 -77t114 -28.5z" />
    <glyph glyph-name="h" unicode="h" horiz-adv-x="1335" 
d="M143 0v1544h308v-581h6q39 62 92.5 103t115 62t119.5 21q121 0 201 -33t125.5 -93t63.5 -142t18 -193v-688h-307v631q0 143 -45.5 208.5t-151.5 65.5q-124 0 -180.5 -75.5t-56.5 -243.5v-586h-308z" />
    <glyph glyph-name="i" unicode="i" horiz-adv-x="594" 
d="M143 0v1118h308v-1118h-308zM451 1544v-254h-308v254h308z" />
    <glyph glyph-name="j" unicode="j" horiz-adv-x="614" 
d="M-23 -385v254q24 -10 68 -10q119 0 119 100v1159h307v-1173q0 -120 -35 -193t-121 -109t-237 -36q-35 0 -101 8zM471 1544v-254h-307v254h307z" />
    <glyph glyph-name="k" unicode="k" horiz-adv-x="1274" 
d="M143 0v1544h308v-829l387 403h362l-422 -411l469 -707h-370l-308 500l-118 -115v-385h-308z" />
    <glyph glyph-name="l" unicode="l" horiz-adv-x="594" 
d="M143 0v1544h308v-1544h-308z" />
    <glyph glyph-name="m" unicode="m" horiz-adv-x="1995" 
d="M143 0v1118h291v-151h4q62 89 148.5 135.5t193.5 46.5q112 0 197 -45t129 -141q56 82 142 134t196 52q123 0 214 -40.5t142 -131t51 -229.5v-748h-307v633q0 91 -11.5 146.5t-52 90.5t-122.5 35q-80 0 -127 -39t-63.5 -101.5t-16.5 -141.5v-623h-307v627q0 95 -10.5 152
t-50.5 91.5t-124 34.5q-41 0 -89 -21.5t-83.5 -78.5t-35.5 -156v-649h-308z" />
    <glyph glyph-name="n" unicode="n" horiz-adv-x="1335" 
d="M143 0v1118h293v-155h6q39 62 93.5 103t118.5 62t130 21q121 0 201 -33t125.5 -93t63.5 -142t18 -193v-688h-307v631q0 143 -45.5 208.5t-151.5 65.5q-124 0 -180.5 -75.5t-56.5 -243.5v-586h-308z" />
    <glyph glyph-name="o" unicode="o" horiz-adv-x="1358" 
d="M100 557q0 134 40.5 243t118.5 188t182.5 120t236.5 41t238 -41t182.5 -119t117.5 -188t41 -244q0 -132 -40.5 -240.5t-116.5 -186t-184.5 -119.5t-237.5 -42q-128 0 -235.5 42t-184.5 121t-117.5 186t-40.5 239zM408 557q0 -151 63.5 -253.5t206.5 -102.5
q145 0 208.5 102.5t63.5 253.5q0 98 -26 179.5t-86.5 131.5t-159.5 50q-98 0 -158 -50t-86 -131.5t-26 -179.5z" />
    <glyph glyph-name="p" unicode="p" horiz-adv-x="1370" 
d="M143 -393v1511h293v-143h4q47 89 143 131.5t224 42.5q89 0 170 -35.5t147.5 -108.5t106 -185.5t39.5 -260.5q0 -194 -67 -327.5t-172.5 -198t-223.5 -64.5q-106 0 -201.5 42.5t-150.5 125.5h-4v-530h-308zM963 561q0 150 -67 253.5t-196 103.5q-128 0 -194 -103.5
t-66 -253.5q0 -153 66 -256.5t194 -103.5q129 0 196 103.5t67 256.5z" />
    <glyph glyph-name="q" unicode="q" horiz-adv-x="1370" 
d="M1227 1118v-1511h-307v530h-5q-53 -82 -149.5 -125t-202.5 -43q-118 0 -223.5 64.5t-172.5 198t-67 327.5q0 148 39.5 260.5t106 185.5t148.5 108.5t169 35.5q128 0 224 -42.5t143 -131.5h4v143h293zM408 561q0 -153 66.5 -256.5t195.5 -103.5q65 0 114.5 28.5t82.5 80
t48 115.5t15 136q0 94 -28 176t-87 131.5t-145 49.5q-129 0 -195.5 -103.5t-66.5 -253.5z" />
    <glyph glyph-name="r" unicode="r" horiz-adv-x="860" 
d="M143 0v1118h293v-209h4q42 105 142.5 172.5t214.5 67.5q37 0 67 -12v-285q-47 10 -110 10q-160 0 -231.5 -98t-71.5 -260v-504h-308z" />
    <glyph glyph-name="s" unicode="s" horiz-adv-x="1184" 
d="M76 362h291q1 -93 68 -139.5t167 -46.5q81 0 140 33.5t59 107.5q0 45 -38.5 74.5t-99.5 48t-208 52.5q-164 35 -259.5 100t-95.5 196q0 198 138 279.5t350 81.5q98 0 181.5 -18t150 -59t109.5 -111t52 -170h-293q-10 151 -208 151q-172 0 -172 -102q0 -39 26.5 -64
t77.5 -43t104.5 -30t139.5 -31q163 -36 257.5 -104t94.5 -210q0 -137 -70.5 -225t-185.5 -126t-252 -38q-218 0 -367 94.5t-157 298.5z" />
    <glyph glyph-name="t" unicode="t" horiz-adv-x="774" 
d="M514 1452v-334h225v-205h-225v-555q0 -51 11 -79t38.5 -39t79.5 -11q55 0 96 9v-240q-64 -10 -180 -10q-103 0 -181 21t-124.5 80.5t-46.5 164.5v659h-187v205h187v334h307z" />
    <glyph glyph-name="u" unicode="u" horiz-adv-x="1335" 
d="M1192 1118v-1118h-291v156h-8q-57 -91 -148.5 -139t-191.5 -48q-117 0 -198.5 32.5t-127.5 93.5t-65 143t-19 192v688h308v-631q0 -93 19.5 -154t62.5 -91.5t114 -30.5q125 0 181.5 75.5t56.5 245.5v586h307z" />
    <glyph glyph-name="v" unicode="v" horiz-adv-x="1147" 
d="M1126 1118l-381 -1118h-342l-383 1118h324l236 -764h4l237 764h305z" />
    <glyph glyph-name="w" unicode="w" horiz-adv-x="1812" 
d="M1774 1118l-353 -1118h-315l-199 750h-4l-190 -750h-320l-354 1118h326l204 -760h4l187 760h299l190 -758h4l205 758h316z" />
    <glyph glyph-name="x" unicode="x" horiz-adv-x="1163" 
d="M2 0l401 588l-366 530h350l197 -293l194 293h340l-368 -524l411 -594h-350l-231 352l-234 -352h-344z" />
    <glyph glyph-name="y" unicode="y" horiz-adv-x="1143" 
d="M1145 1118l-467 -1259q-50 -134 -139 -193t-246 -59q-82 0 -189 10v254q45 -3 93.5 -7.5t87.5 -4.5q59 7 88.5 46t29.5 95q0 35 -12 70l-393 1048h328l254 -766h4l243 766h318z" />
    <glyph glyph-name="z" unicode="z" horiz-adv-x="1163" 
d="M68 0v231l581 656h-538v231h944v-231l-582 -656h623v-231h-1028z" />
    <glyph glyph-name="braceleft" unicode="{" horiz-adv-x="731" 
d="M727 1581v-242h-117q-70 0 -93 -45.5t-23 -113.5v-328q0 -138 -67 -191t-148 -65v-6q73 -7 144 -61.5t71 -176.5v-346q0 -69 23.5 -113.5t92.5 -44.5h117v-241h-276q-53 0 -115.5 33.5t-106 100.5t-43.5 157v421q0 62 -33 102.5t-79.5 59.5t-87.5 19v188q42 0 87.5 19.5
t79 63.5t33.5 112v405q0 91 43.5 158t106.5 101t115 34h276z" />
    <glyph glyph-name="bar" unicode="|" horiz-adv-x="475" 
d="M123 -438v2048h229v-2048h-229z" />
    <glyph glyph-name="braceright" unicode="}" horiz-adv-x="731" 
d="M4 -393v241h119q69 0 93 44t24 114v346q0 122 70.5 176.5t144.5 61.5v6q-215 33 -215 256v328q0 159 -117 159h-119v242h277q53 0 116 -34t106.5 -101t43.5 -158v-405q0 -68 33 -111.5t79 -63.5t86 -20v-188q-39 0 -85.5 -19t-79.5 -59.5t-33 -102.5v-421
q0 -90 -43.5 -157t-106 -100.5t-116.5 -33.5h-277z" />
    <glyph glyph-name="asciitilde" unicode="~" horiz-adv-x="1352" 
d="M1092 743l88 -200q-68 -93 -125 -140t-146 -47q-54 0 -103.5 18t-117.5 54q-63 36 -121.5 56t-126.5 20q-65 0 -106.5 -42t-75.5 -114l-86 201q95 186 270 186q83 0 240 -69q27 -12 74.5 -33.5t84 -33t62.5 -11.5q57 0 97 39t92 116z" />
    <glyph glyph-name="exclamdown" unicode="&#xa1;" horiz-adv-x="623" 
d="M481 1149v-334h-340v334h340zM152 -395v415l84 666h153l82 -666v-415h-319z" />
    <glyph glyph-name="cent" unicode="&#xa2;" 
d="M586 201v714q-108 -28 -159.5 -123.5t-51.5 -220.5q0 -84 19.5 -158.5t67.5 -131.5t124 -80zM586 -248v217q-114 9 -209 55t-165 123.5t-107 178.5t-37 215q0 165 60 297.5t177.5 214t280.5 96.5v182h127v-182q89 0 174.5 -31t154.5 -87t110 -135t44 -173h-299
q-4 51 -30 93t-65.5 69t-88.5 33v-717q79 15 132.5 84t55.5 153h299q-7 -99 -46.5 -182t-105.5 -145.5t-150.5 -97.5t-184.5 -44v-217h-127z" />
    <glyph glyph-name="sterling" unicode="&#xa3;" 
d="M215 -37l-135 201q106 67 176 159t70 199q0 58 -41 146h-215v184h139q-39 50 -68.5 130.5t-29.5 168.5q0 116 63.5 214.5t189.5 157t302 58.5q122 0 219 -34.5t165 -103.5t104 -169.5t36 -233.5h-291q-9 84 -22 136t-64 101.5t-151 49.5q-95 0 -153 -55t-58 -144
q0 -59 14.5 -114.5t73.5 -161.5h288v-184h-227q16 -57 16 -133q0 -95 -47 -167t-129 -137l4 -4q80 49 148 49q49 0 170 -22q106 -27 168 -27q51 0 93.5 18.5t96.5 73.5l131 -217q-145 -139 -338 -139q-76 0 -128.5 9.5t-106.5 29.5q-53 20 -101.5 31.5t-113.5 11.5
q-144 0 -248 -82z" />
    <glyph glyph-name="currency" unicode="&#xa4;" 
d="M66 322l122 127q-102 121 -102 305q0 93 25.5 176.5t76.5 134.5l-122 127l122 123l123 -121q53 44 140 71t178 27q85 0 165.5 -26t129.5 -70l125 123l131 -131l-119 -119q46 -52 71 -136t25 -173q0 -88 -26 -174.5t-72 -143.5l117 -120l-117 -119l-123 125
q-54 -51 -137.5 -79t-171.5 -28q-96 0 -180 27.5t-140 77.5l-121 -125zM629 1061q-87 0 -150 -42.5t-94 -112.5t-31 -152q0 -125 73 -213t200 -88q83 0 143 43t89.5 112t29.5 152q0 79 -30 147t-88.5 111t-141.5 43z" />
    <glyph glyph-name="yen" unicode="&#xa5;" 
d="M786 0h-327v299h-340v205h340v100l-31 62h-309v204h205l-334 674h354l285 -674l276 674h350l-331 -674h204v-204h-309l-33 -62v-100h342v-205h-342v-299z" />
    <glyph glyph-name="brokenbar" unicode="&#xa6;" horiz-adv-x="475" 
d="M123 -182v512h229v-512h-229zM352 1354v-512h-229v512h229z" />
    <glyph glyph-name="section" unicode="&#xa7;" horiz-adv-x="1251" 
d="M840 621l-357 200q-9 5 -21.5 11t-21.5 9t-16 3q-29 -3 -55 -25.5t-41 -54.5t-15 -66q0 -67 70 -106l389 -211q43 -16 66 -16q25 0 48.5 19t37.5 46.5t14 52.5q0 82 -98 138zM1094 1163h-269q0 82 -49.5 134.5t-134.5 52.5q-40 0 -78 -17t-62 -48.5t-24 -74.5
q0 -41 30 -77t80 -67t151.5 -78.5t105.5 -49.5q169 -80 264.5 -169t95.5 -228q0 -71 -28.5 -135.5t-78 -110.5t-116.5 -70q119 -91 119 -256q0 -115 -67 -197t-173.5 -123.5t-220.5 -41.5q-140 0 -250.5 44.5t-173.5 138.5t-63 237h268q9 -189 213 -189q69 0 114.5 37
t45.5 105q0 47 -29.5 85t-76 67t-106 57t-157.5 73q-112 52 -193 106t-132.5 130t-51.5 174q0 114 60.5 195.5t171.5 119.5q-49 52 -72 103t-23 116q0 116 65 201.5t168.5 129.5t219.5 44q129 0 233 -49t164 -143.5t60 -225.5z" />
    <glyph glyph-name="dieresis" unicode="&#xa8;" horiz-adv-x="600" 
d="M377 1290v254h293v-254h-293zM-70 1290v254h291v-254h-291z" />
    <glyph glyph-name="copyright" unicode="&#xa9;" horiz-adv-x="1817" 
d="M78 772q0 178 67 330.5t183.5 259t266 163t312.5 56.5q165 0 315.5 -56.5t266.5 -162.5t183 -257t67 -333q0 -180 -67 -330.5t-183 -257.5t-266 -164t-316 -57q-164 0 -313 57t-266 164.5t-183.5 259.5t-66.5 328zM299 772q0 -180 81 -326t220 -227.5t307 -81.5
q166 0 307 82t222.5 227t81.5 326q0 136 -47 253t-130.5 202t-195.5 132.5t-238 47.5q-127 0 -238.5 -47.5t-194.5 -133.5t-129 -202t-46 -252zM1325 930h-199q-6 46 -34.5 82.5t-73 58t-92.5 21.5q-87 0 -144 -44t-82.5 -116.5t-25.5 -157.5q0 -129 63 -219t189 -90
q90 0 144.5 57t66.5 150h196q-10 -114 -64 -200t-143 -132.5t-200 -46.5q-103 0 -188.5 36t-145.5 103.5t-91.5 155t-31.5 186.5q0 103 31.5 193t90.5 157t143.5 103.5t191.5 36.5q103 0 189 -39.5t142 -116t68 -178.5z" />
    <glyph glyph-name="ordfeminine" unicode="&#xaa;" horiz-adv-x="823" 
d="M508 1114v43q-12 -12 -38 -20t-59 -12t-49 -7q-110 -22 -110 -86q0 -42 29.5 -61t68.5 -19q158 0 158 162zM274 1309h-221q18 128 119 188q87 47 219 47q139 0 231.5 -41t92.5 -151v-359q0 -119 26 -164h-219q-10 33 -14 68q-83 -86 -234 -86q-108 0 -174.5 53.5
t-66.5 161.5t67 153t179 58q56 6 98.5 10.5t71 11t45 21t16.5 39.5q0 50 -33 67t-96 17q-41 0 -71 -24t-36 -70z" />
    <glyph glyph-name="guillemotleft" unicode="&#xab;" horiz-adv-x="915" 
d="M846 172l-338 270v293l338 266v-260l-195 -153l195 -156v-260zM410 172l-340 270v293l340 266v-260l-195 -153l195 -156v-260z" />
    <glyph glyph-name="logicalnot" unicode="&#xac;" horiz-adv-x="1352" 
d="M1221 879v-664h-232v432h-858v232h1090z" />
    <glyph glyph-name="registered" unicode="&#xae;" horiz-adv-x="889" 
d="M272 965v424h228q37 0 65.5 -15.5t44 -41.5t15.5 -60q0 -76 -66 -107q55 -15 59 -100q2 -10 4 -34.5t4.5 -38.5t10.5 -27h-92q-7 16 -10 50.5t-7 51.5q-5 35 -19.5 49t-49.5 14h-94v-165h-93zM365 1317v-119h102q65 0 65 59q0 60 -65 60h-102zM29 1178q0 90 33 164.5
t91 127.5t134 82t157 29q82 0 159.5 -29t134 -82t89.5 -127.5t33 -164.5q0 -118 -57 -211.5t-154 -144t-205 -50.5q-109 0 -205 51t-153 144.5t-57 210.5zM139 1178q0 -137 88 -227.5t217 -90.5q82 0 153 41t112 113.5t41 163.5t-41 163t-112 113t-153 41q-83 0 -153.5 -41
t-111 -113.5t-40.5 -162.5z" />
    <glyph glyph-name="macron" unicode="&#xaf;" horiz-adv-x="600" 
d="M-102 1331v164h804v-164h-804z" />
    <glyph glyph-name="degree" unicode="&#xb0;" horiz-adv-x="819" 
d="M90 1225q0 85 43 159t117 117t160 43t160 -43t116.5 -117t42.5 -159q0 -86 -42.5 -161t-116 -118t-160.5 -43q-132 0 -226 95t-94 227zM231 1225q0 -77 54.5 -134t124.5 -57q71 0 125.5 56.5t54.5 134.5q0 77 -54 132.5t-126 55.5q-71 0 -125 -56.5t-54 -131.5z" />
    <glyph glyph-name="plusminus" unicode="&#xb1;" horiz-adv-x="1352" 
d="M793 1094v-283h428v-231h-428v-283h-232v283h-430v231h430v283h232zM131 0v231h1090v-231h-1090z" />
    <glyph glyph-name="twosuperior" unicode="&#xb2;" horiz-adv-x="866" 
d="M291 1167h-219q0 113 43 198.5t131 132t217 46.5q91 0 168 -34t122.5 -99.5t45.5 -159.5t-44 -155.5t-130 -120.5q-26 -17 -95 -57t-114 -75t-78 -79h453v-174h-721q1 108 38.5 182.5t97 124t165.5 117.5q22 15 68.5 44t73.5 51t47 56t20 72q0 58 -36.5 95.5t-97.5 37.5
q-55 0 -90 -31t-50 -77.5t-15 -94.5z" />
    <glyph glyph-name="threesuperior" unicode="&#xb3;" horiz-adv-x="866" 
d="M365 1004v151q92 0 148 17t56 83q0 52 -39.5 83.5t-93.5 31.5q-67 0 -106 -43t-39 -113h-207q5 153 98 241.5t252 88.5q86 0 166 -30.5t129 -91t49 -144.5q0 -66 -36.5 -117t-106.5 -69v-5q79 -13 127.5 -70t48.5 -132q0 -151 -107.5 -232.5t-267.5 -81.5q-177 0 -278 90
t-101 257h209q3 -75 46 -125t120 -50q65 0 111.5 40t46.5 98q0 80 -61 101.5t-164 21.5z" />
    <glyph glyph-name="acute" unicode="&#xb4;" horiz-adv-x="600" 
d="M684 1563l-332 -308h-215l207 308h340z" />
    <glyph glyph-name="mu" unicode="&#xb5;" horiz-adv-x="1335" 
d="M1192 1118v-1118h-291v156h-8q-55 -87 -138 -137t-143 -50q-113 0 -161 54v-416h-308v1511h308v-631q0 -93 19.5 -154t62.5 -91.5t114 -30.5q125 0 181.5 75.5t56.5 245.5v586h307z" />
    <glyph glyph-name="paragraph" unicode="&#xb6;" horiz-adv-x="1362" 
d="M487 -358v1130q-145 0 -253 46.5t-164 132.5t-56 200q0 213 137 303t381 90h635v-1902h-221v1728h-237v-1728h-222z" />
    <glyph glyph-name="cedilla" unicode="&#xb8;" horiz-adv-x="600" 
d="M47 -424l45 105q84 -39 182 -39q86 0 86 73q0 68 -86 68q-44 0 -88 -14l-45 51l127 184h107l-84 -119h4q22 11 74 11q82 0 140 -38.5t58 -113.5q0 -116 -71.5 -165.5t-180.5 -49.5q-90 0 -139.5 10t-128.5 37z" />
    <glyph glyph-name="onesuperior" unicode="&#xb9;" horiz-adv-x="866" 
d="M635 1524v-934h-221v594h-238v162q252 0 277 178h182z" />
    <glyph glyph-name="ordmasculine" unicode="&#xba;" horiz-adv-x="881" 
d="M70 1176q0 112 45.5 195.5t129.5 128t193 44.5q84 0 153 -25t118 -72.5t75.5 -115.5t26.5 -155q0 -112 -45.5 -194.5t-130 -126.5t-197.5 -44q-111 0 -194 44t-128.5 126.5t-45.5 194.5zM301 1176q0 -80 35.5 -141.5t101.5 -61.5q70 0 106 61t36 142q0 50 -15 98.5
t-47.5 78t-79.5 29.5q-67 0 -102 -61t-35 -145z" />
    <glyph glyph-name="guillemotright" unicode="&#xbb;" horiz-adv-x="915" 
d="M508 1001l338 -266v-293l-338 -270v260l194 156l-194 153v260zM70 1001l340 -266v-293l-340 -270v260l194 156l-194 153v260z" />
    <glyph glyph-name="onequarter" unicode="&#xbc;" horiz-adv-x="2030" 
d="M1540 0v193h-414v200l406 514h217v-542h123v-172h-123v-193h-209zM1540 365v311h-4l-246 -311h250zM379 -47l897 1608h182l-891 -1608h-188zM561 1524v-934h-221v594h-238v162q252 0 277 178h182z" />
    <glyph glyph-name="onehalf" unicode="&#xbd;" horiz-adv-x="2023" 
d="M379 -47l897 1608h182l-891 -1608h-188zM561 1524v-934h-221v594h-238v162q252 0 277 178h182zM1372 578h-221q0 173 99 274.5t292 101.5q71 0 131.5 -19t106 -55t73 -93t27.5 -125q0 -95 -44 -156.5t-130 -120.5q-41 -25 -89.5 -54t-77 -47.5t-61.5 -48t-59 -63.5h453
v-172h-723q1 154 74 240t229 184q80 50 112.5 71.5t63 60.5t31.5 91q0 57 -35.5 95t-95.5 38q-56 0 -91 -31t-50 -77.5t-15 -93.5z" />
    <glyph glyph-name="threequarters" unicode="&#xbe;" horiz-adv-x="2023" 
d="M1585 0v193h-416v200l406 514h217v-542h123v-172h-123v-193h-207zM1585 365v311h-6l-246 -311h252zM567 -47l895 1608h185l-891 -1608h-189zM442 1004v151q92 0 148.5 17t56.5 83q0 52 -39.5 83.5t-93.5 31.5q-67 0 -106 -43t-39 -113h-207q5 153 98 241.5t252 88.5
q86 0 166 -30.5t129 -91t49 -144.5q0 -66 -36.5 -117t-106.5 -69v-5q79 -13 127.5 -70t48.5 -132q0 -151 -107.5 -232.5t-267.5 -81.5q-177 0 -278 90t-101 257h209q3 -76 45.5 -125.5t120.5 -49.5q65 0 111.5 40t46.5 98q0 80 -61.5 101.5t-164.5 21.5z" />
    <glyph glyph-name="questiondown" unicode="&#xbf;" horiz-adv-x="1178" 
d="M803 111h317q-3 -113 -41.5 -212.5t-107.5 -171.5t-164.5 -111.5t-210.5 -39.5q-189 0 -311 66t-175 161.5t-53 190.5q0 142 46.5 219.5t134.5 144.5q40 29 74 54t63 54t49 65t27 81v82h290v-98q-6 -87 -32 -150t-65.5 -107t-88.5 -81q-65 -51 -92 -76t-46.5 -63.5
t-19.5 -93.5q0 -195 183 -195q107 0 162.5 78.5t60.5 202.5zM772 1149v-334h-340v334h340z" />
    <glyph glyph-name="Agrave" unicode="&#xc0;" horiz-adv-x="1552" 
d="M20 0l586 1544h348l578 -1544h-352l-119 344h-576l-123 -344h-342zM774 1163l-201 -567h400l-195 567h-4zM727 1681l-334 308h340l207 -308h-213z" />
    <glyph glyph-name="Aacute" unicode="&#xc1;" horiz-adv-x="1552" 
d="M20 0l586 1544h348l578 -1544h-352l-119 344h-576l-123 -344h-342zM774 1163l-201 -567h400l-195 567h-4zM1161 1989l-332 -308h-215l207 308h340z" />
    <glyph glyph-name="Acircumflex" unicode="&#xc2;" horiz-adv-x="1552" 
d="M20 0l586 1544h348l578 -1544h-352l-119 344h-576l-123 -344h-342zM774 1163l-201 -567h400l-195 567h-4zM397 1681l242 308h280l238 -308h-254l-133 177l-139 -177h-234z" />
    <glyph glyph-name="Atilde" unicode="&#xc3;" horiz-adv-x="1552" 
d="M20 0l586 1544h348l578 -1544h-352l-119 344h-576l-123 -344h-342zM774 1163l-201 -567h400l-195 567h-4zM1026 1970h147q-32 -113 -65 -160q-60 -88 -176 -88q-32 0 -60 5t-67 17t-49 15q-99 37 -152 37q-41 0 -60.5 -22.5t-31.5 -67.5h-131q26 118 85.5 191t186.5 73
q32 0 62.5 -9.5t76.5 -27.5q88 -39 142 -39q47 0 69.5 22t22.5 54z" />
    <glyph glyph-name="Adieresis" unicode="&#xc4;" horiz-adv-x="1552" 
d="M20 0l586 1544h348l578 -1544h-352l-119 344h-576l-123 -344h-342zM774 1163l-201 -567h400l-195 567h-4zM854 1716v254h293v-254h-293zM407 1716v254h291v-254h-291z" />
    <glyph glyph-name="Aring" unicode="&#xc5;" horiz-adv-x="1552" 
d="M20 0l586 1544h348l578 -1544h-352l-119 344h-576l-123 -344h-342zM774 1163l-201 -567h400l-195 567h-4zM641 1845q0 -66 37 -108.5t98 -42.5q62 0 100.5 42.5t38.5 108.5q0 65 -38.5 107.5t-100.5 42.5q-61 0 -98 -42.5t-37 -107.5zM512 1845q0 72 36 132t96.5 95
t131.5 35q73 0 133.5 -35t96.5 -95t36 -132q0 -71 -35.5 -132t-96.5 -96.5t-134 -35.5q-71 0 -132 35.5t-96.5 96.5t-35.5 132z" />
    <glyph glyph-name="AE" unicode="&#xc6;" horiz-adv-x="2236" 
d="M961 1257l-297 -661h370v661h-73zM33 0l737 1544h1311v-287h-717v-329h674v-264h-674v-379h735v-285h-1065v344h-483l-156 -344h-362z" />
    <glyph glyph-name="Ccedilla" unicode="&#xc7;" horiz-adv-x="1642" 
d="M1530 1024h-330q-11 77 -58 138t-121.5 96.5t-156.5 35.5q-146 0 -240 -73t-137 -193t-43 -262q0 -137 43.5 -255t138 -190.5t238.5 -72.5q151 0 240.5 94t109.5 252h328q-12 -142 -65.5 -258t-142.5 -200t-205.5 -127.5t-258.5 -45.5l-55 -78h4q22 11 74 11
q82 0 140.5 -39t58.5 -113q0 -116 -71.5 -165.5t-180.5 -49.5q-91 0 -140.5 10t-128.5 37l45 105q85 -39 183 -39q86 0 86 73q0 68 -86 68q-46 0 -88 -14l-45 51l102 149q-205 22 -355.5 131.5t-229.5 283.5t-79 382q0 170 51.5 320.5t151 261.5t240 172t317.5 61
q170 0 315 -65.5t237.5 -191.5t113.5 -300z" />
    <glyph glyph-name="Egrave" unicode="&#xc8;" horiz-adv-x="1464" 
d="M184 0v1544h1155v-287h-815v-329h748v-264h-748v-379h832v-285h-1172zM682 1681l-334 308h340l207 -308h-213z" />
    <glyph glyph-name="Eacute" unicode="&#xc9;" horiz-adv-x="1464" 
d="M184 0v1544h1155v-287h-815v-329h748v-264h-748v-379h832v-285h-1172zM1116 1989l-332 -308h-215l207 308h340z" />
    <glyph glyph-name="Ecircumflex" unicode="&#xca;" horiz-adv-x="1464" 
d="M184 0v1544h1155v-287h-815v-329h748v-264h-748v-379h832v-285h-1172zM352 1681l242 308h280l238 -308h-254l-133 177l-139 -177h-234z" />
    <glyph glyph-name="Edieresis" unicode="&#xcb;" horiz-adv-x="1464" 
d="M184 0v1544h1155v-287h-815v-329h748v-264h-748v-379h832v-285h-1172zM809 1716v254h293v-254h-293zM362 1716v254h291v-254h-291z" />
    <glyph glyph-name="Igrave" unicode="&#xcc;" horiz-adv-x="709" 
d="M184 0v1544h340v-1544h-340zM305 1681l-334 308h340l207 -308h-213z" />
    <glyph glyph-name="Iacute" unicode="&#xcd;" horiz-adv-x="709" 
d="M184 0v1544h340v-1544h-340zM739 1989l-332 -308h-215l207 308h340z" />
    <glyph glyph-name="Icircumflex" unicode="&#xce;" horiz-adv-x="709" 
d="M184 0v1544h340v-1544h-340zM-25 1681l242 308h280l238 -308h-254l-133 177l-139 -177h-234z" />
    <glyph glyph-name="Idieresis" unicode="&#xcf;" horiz-adv-x="709" 
d="M184 0v1544h340v-1544h-340zM432 1716v254h293v-254h-293zM-15 1716v254h291v-254h-291z" />
    <glyph glyph-name="Eth" unicode="&#xd0;" horiz-adv-x="1655" 
d="M184 0v672h-143v252h143v620h666q202 0 361 -85.5t249 -258t90 -420.5q0 -228 -78.5 -404.5t-236.5 -276t-385 -99.5h-666zM524 1257v-333h346v-254h-346v-385h301q106 0 192.5 46.5t139.5 150.5t53 266q0 126 -23 217.5t-73 156.5t-135.5 100t-212.5 35h-242z" />
    <glyph glyph-name="Ntilde" unicode="&#xd1;" horiz-adv-x="1671" 
d="M184 0v1544h338l643 -1036h4v1036h318v-1544h-338l-643 1034h-4v-1034h-318zM1086 1970h147q-32 -113 -65 -160q-60 -88 -176 -88q-32 0 -60 5t-67 17t-49 15q-99 37 -152 37q-41 0 -60.5 -22.5t-31.5 -67.5h-131q26 118 85.5 191t186.5 73q32 0 62.5 -9.5t76.5 -27.5
q88 -39 142 -39q47 0 69.5 22t22.5 54z" />
    <glyph glyph-name="Ograve" unicode="&#xd2;" horiz-adv-x="1729" 
d="M104 766q0 170 51.5 320.5t151 261.5t240 172t317.5 61q178 0 318.5 -61t239.5 -172t150.5 -259.5t51.5 -322.5q0 -168 -51.5 -314t-151 -257t-239.5 -171.5t-318 -60.5q-232 0 -405 105.5t-264 289t-91 408.5zM444 766q0 -137 43.5 -255t138 -190.5t238.5 -72.5
t238.5 72.5t138 190.5t43.5 255q0 142 -43 262t-137 193t-240 73t-240 -73t-137 -193t-43 -262zM815 1681l-334 308h340l207 -308h-213z" />
    <glyph glyph-name="Oacute" unicode="&#xd3;" horiz-adv-x="1729" 
d="M104 766q0 170 51.5 320.5t151 261.5t240 172t317.5 61q178 0 318.5 -61t239.5 -172t150.5 -259.5t51.5 -322.5q0 -168 -51.5 -314t-151 -257t-239.5 -171.5t-318 -60.5q-232 0 -405 105.5t-264 289t-91 408.5zM444 766q0 -137 43.5 -255t138 -190.5t238.5 -72.5
t238.5 72.5t138 190.5t43.5 255q0 142 -43 262t-137 193t-240 73t-240 -73t-137 -193t-43 -262zM1249 1989l-332 -308h-215l207 308h340z" />
    <glyph glyph-name="Ocircumflex" unicode="&#xd4;" horiz-adv-x="1729" 
d="M104 766q0 170 51.5 320.5t151 261.5t240 172t317.5 61q178 0 318.5 -61t239.5 -172t150.5 -259.5t51.5 -322.5q0 -168 -51.5 -314t-151 -257t-239.5 -171.5t-318 -60.5q-232 0 -405 105.5t-264 289t-91 408.5zM444 766q0 -137 43.5 -255t138 -190.5t238.5 -72.5
t238.5 72.5t138 190.5t43.5 255q0 142 -43 262t-137 193t-240 73t-240 -73t-137 -193t-43 -262zM485 1681l242 308h280l238 -308h-254l-133 177l-139 -177h-234z" />
    <glyph glyph-name="Otilde" unicode="&#xd5;" horiz-adv-x="1729" 
d="M104 766q0 170 51.5 320.5t151 261.5t240 172t317.5 61q178 0 318.5 -61t239.5 -172t150.5 -259.5t51.5 -322.5q0 -168 -51.5 -314t-151 -257t-239.5 -171.5t-318 -60.5q-232 0 -405 105.5t-264 289t-91 408.5zM444 766q0 -137 43.5 -255t138 -190.5t238.5 -72.5
t238.5 72.5t138 190.5t43.5 255q0 142 -43 262t-137 193t-240 73t-240 -73t-137 -193t-43 -262zM1114 1970h147q-32 -113 -65 -160q-60 -88 -176 -88q-32 0 -60 5t-67 17t-49 15q-99 37 -152 37q-41 0 -60.5 -22.5t-31.5 -67.5h-131q26 118 85.5 191t186.5 73
q32 0 62.5 -9.5t76.5 -27.5q88 -39 142 -39q47 0 69.5 22t22.5 54z" />
    <glyph glyph-name="Odieresis" unicode="&#xd6;" horiz-adv-x="1729" 
d="M104 766q0 170 51.5 320.5t151 261.5t240 172t317.5 61q178 0 318.5 -61t239.5 -172t150.5 -259.5t51.5 -322.5q0 -168 -51.5 -314t-151 -257t-239.5 -171.5t-318 -60.5q-232 0 -405 105.5t-264 289t-91 408.5zM444 766q0 -137 43.5 -255t138 -190.5t238.5 -72.5
t238.5 72.5t138 190.5t43.5 255q0 142 -43 262t-137 193t-240 73t-240 -73t-137 -193t-43 -262zM942 1716v254h293v-254h-293zM495 1716v254h291v-254h-291z" />
    <glyph glyph-name="multiply" unicode="&#xd7;" horiz-adv-x="1352" 
d="M330 37l-164 164l348 346l-344 346l164 164l344 -346l346 346l162 -164l-346 -346l346 -346l-162 -164l-346 348z" />
    <glyph glyph-name="Oslash" unicode="&#xd8;" horiz-adv-x="1729" 
d="M504 475l641 709q-105 110 -281 110q-146 0 -240 -73t-137 -193t-43 -262q0 -165 60 -291zM1227 1061l-639 -707q106 -106 276 -106q144 0 238.5 72.5t138 190.5t43.5 255q0 175 -57 295zM1526 1606l106 -95l-180 -200q172 -220 172 -545q0 -168 -51.5 -314t-151 -257
t-239.5 -171.5t-318 -60.5q-288 0 -483 162l-178 -197l-107 95l185 204q-177 222 -177 539q0 170 51.5 320.5t151 261.5t240 172t317.5 61q149 0 272.5 -43t215.5 -125z" />
    <glyph glyph-name="Ugrave" unicode="&#xd9;" horiz-adv-x="1688" 
d="M1503 1544v-960q0 -156 -45 -272.5t-130.5 -194t-207.5 -116t-276 -38.5q-156 0 -278 37.5t-208 116t-130 195t-44 272.5v960h340v-960q0 -153 67 -244.5t253 -91.5q118 0 188.5 35.5t100.5 109.5t30 191v960h340zM795 1681l-334 308h340l207 -308h-213z" />
    <glyph glyph-name="Uacute" unicode="&#xda;" horiz-adv-x="1688" 
d="M1503 1544v-960q0 -156 -45 -272.5t-130.5 -194t-207.5 -116t-276 -38.5q-156 0 -278 37.5t-208 116t-130 195t-44 272.5v960h340v-960q0 -153 67 -244.5t253 -91.5q118 0 188.5 35.5t100.5 109.5t30 191v960h340zM1229 1989l-332 -308h-215l207 308h340z" />
    <glyph glyph-name="Ucircumflex" unicode="&#xdb;" horiz-adv-x="1688" 
d="M1503 1544v-960q0 -156 -45 -272.5t-130.5 -194t-207.5 -116t-276 -38.5q-156 0 -278 37.5t-208 116t-130 195t-44 272.5v960h340v-960q0 -153 67 -244.5t253 -91.5q118 0 188.5 35.5t100.5 109.5t30 191v960h340zM465 1681l242 308h280l238 -308h-254l-133 177
l-139 -177h-234z" />
    <glyph glyph-name="Udieresis" unicode="&#xdc;" horiz-adv-x="1688" 
d="M1503 1544v-960q0 -156 -45 -272.5t-130.5 -194t-207.5 -116t-276 -38.5q-156 0 -278 37.5t-208 116t-130 195t-44 272.5v960h340v-960q0 -153 67 -244.5t253 -91.5q118 0 188.5 35.5t100.5 109.5t30 191v960h340zM922 1716v254h293v-254h-293zM475 1716v254h291v-254
h-291z" />
    <glyph glyph-name="Yacute" unicode="&#xdd;" horiz-adv-x="1397" 
d="M526 0v602l-569 942h383l362 -610l359 610h379l-574 -952v-592h-340zM1083 1989l-332 -308h-215l207 308h340z" />
    <glyph glyph-name="Thorn" unicode="&#xde;" horiz-adv-x="1487" 
d="M184 0v1544h340v-211h357q183 0 303 -68.5t175.5 -180t55.5 -244.5t-55.5 -246t-175.5 -181.5t-303 -68.5h-357v-344h-340zM524 1071v-463h262q88 0 153.5 18t105.5 70t40 144q0 135 -80 183t-219 48h-262z" />
    <glyph glyph-name="germandbls" unicode="&#xdf;" horiz-adv-x="1309" 
d="M143 0v1061q0 141 41 256t153 189.5t314 74.5q135 0 246.5 -46t178.5 -140.5t67 -229.5q0 -101 -55.5 -187t-145.5 -114v-4q68 -15 121.5 -50.5t88.5 -86t53 -115.5t18 -135q0 -134 -60.5 -250t-168 -185t-240.5 -69q-97 0 -179 15v249q36 -10 91 -10q70 0 127.5 35
t89.5 94t32 131q0 121 -66 193t-198 72q-8 0 -76 -5v203q38 -4 50 -4q94 0 159.5 49.5t65.5 143.5q0 192 -207 192q-90 0 -141 -57t-51 -154v-1116h-308z" />
    <glyph glyph-name="agrave" unicode="&#xe0;" horiz-adv-x="1272" 
d="M827 432v115q-15 -14 -41 -23.5t-69 -17.5t-76 -13t-70 -12q-84 -16 -132 -52t-48 -112q0 -141 189 -141q154 0 200.5 81t46.5 175zM426 774h-307q7 136 82.5 220t191.5 119.5t250 35.5q208 0 350 -68.5t142 -251.5v-581q0 -187 39 -248h-312q-20 70 -22 109
q-67 -72 -166 -106t-209 -34q-169 0 -275 86t-106 250q0 170 102.5 243t278.5 97q92 12 180 23.5t135 37.5t47 85q0 91 -50.5 121t-147.5 30q-189 0 -203 -168zM586 1255l-334 308h340l207 -308h-213z" />
    <glyph glyph-name="aacute" unicode="&#xe1;" horiz-adv-x="1272" 
d="M827 432v115q-15 -14 -41 -23.5t-69 -17.5t-76 -13t-70 -12q-84 -16 -132 -52t-48 -112q0 -141 189 -141q154 0 200.5 81t46.5 175zM426 774h-307q7 136 82.5 220t191.5 119.5t250 35.5q208 0 350 -68.5t142 -251.5v-581q0 -187 39 -248h-312q-20 70 -22 109
q-67 -72 -166 -106t-209 -34q-169 0 -275 86t-106 250q0 170 102.5 243t278.5 97q92 12 180 23.5t135 37.5t47 85q0 91 -50.5 121t-147.5 30q-189 0 -203 -168zM1020 1563l-332 -308h-215l207 308h340z" />
    <glyph glyph-name="acircumflex" unicode="&#xe2;" horiz-adv-x="1272" 
d="M827 432v115q-15 -14 -41 -23.5t-69 -17.5t-76 -13t-70 -12q-84 -16 -132 -52t-48 -112q0 -141 189 -141q154 0 200.5 81t46.5 175zM426 774h-307q7 136 82.5 220t191.5 119.5t250 35.5q208 0 350 -68.5t142 -251.5v-581q0 -187 39 -248h-312q-20 70 -22 109
q-67 -72 -166 -106t-209 -34q-169 0 -275 86t-106 250q0 170 102.5 243t278.5 97q92 12 180 23.5t135 37.5t47 85q0 91 -50.5 121t-147.5 30q-189 0 -203 -168zM256 1255l242 308h280l238 -308h-254l-133 177l-139 -177h-234z" />
    <glyph glyph-name="atilde" unicode="&#xe3;" horiz-adv-x="1272" 
d="M827 432v115q-15 -14 -41 -23.5t-69 -17.5t-76 -13t-70 -12q-84 -16 -132 -52t-48 -112q0 -141 189 -141q154 0 200.5 81t46.5 175zM426 774h-307q7 136 82.5 220t191.5 119.5t250 35.5q208 0 350 -68.5t142 -251.5v-581q0 -187 39 -248h-312q-20 70 -22 109
q-67 -72 -166 -106t-209 -34q-169 0 -275 86t-106 250q0 170 102.5 243t278.5 97q92 12 180 23.5t135 37.5t47 85q0 91 -50.5 121t-147.5 30q-189 0 -203 -168zM885 1544h147q-32 -113 -65 -160q-60 -88 -176 -88q-32 0 -60 5t-67 17t-49 15q-99 37 -152 37
q-41 0 -60.5 -22.5t-31.5 -67.5h-131q26 118 85.5 191t186.5 73q32 0 62.5 -9.5t76.5 -27.5q88 -39 142 -39q47 0 69.5 22t22.5 54z" />
    <glyph glyph-name="adieresis" unicode="&#xe4;" horiz-adv-x="1272" 
d="M827 432v115q-15 -14 -41 -23.5t-69 -17.5t-76 -13t-70 -12q-84 -16 -132 -52t-48 -112q0 -141 189 -141q154 0 200.5 81t46.5 175zM426 774h-307q7 136 82.5 220t191.5 119.5t250 35.5q208 0 350 -68.5t142 -251.5v-581q0 -187 39 -248h-312q-20 70 -22 109
q-67 -72 -166 -106t-209 -34q-169 0 -275 86t-106 250q0 170 102.5 243t278.5 97q92 12 180 23.5t135 37.5t47 85q0 91 -50.5 121t-147.5 30q-189 0 -203 -168zM713 1290v254h293v-254h-293zM266 1290v254h291v-254h-291z" />
    <glyph glyph-name="aring" unicode="&#xe5;" horiz-adv-x="1272" 
d="M827 432v115q-15 -14 -41 -23.5t-69 -17.5t-76 -13t-70 -12q-84 -16 -132 -52t-48 -112q0 -141 189 -141q154 0 200.5 81t46.5 175zM426 774h-307q7 136 82.5 220t191.5 119.5t250 35.5q208 0 350 -68.5t142 -251.5v-581q0 -187 39 -248h-312q-20 70 -22 109
q-67 -72 -166 -106t-209 -34q-169 0 -275 86t-106 250q0 170 102.5 243t278.5 97q92 12 180 23.5t135 37.5t47 85q0 91 -50.5 121t-147.5 30q-189 0 -203 -168zM500 1493q0 -66 37 -108.5t98 -42.5q62 0 100.5 42.5t38.5 108.5q0 65 -38.5 107.5t-100.5 42.5
q-61 0 -98 -42.5t-37 -107.5zM371 1493q0 72 36 132t96.5 95t131.5 35q73 0 133.5 -35t96.5 -95t36 -132q0 -71 -35.5 -132t-96.5 -96.5t-134 -35.5q-71 0 -132 35.5t-96.5 96.5t-35.5 132z" />
    <glyph glyph-name="ae" unicode="&#xe6;" horiz-adv-x="2017" 
d="M850 406v139q-23 -19 -66 -32t-104 -22.5t-92 -15.5q-83 -14 -131.5 -47.5t-48.5 -108.5q0 -52 26.5 -84t68.5 -45.5t95 -13.5q98 0 175 58.5t77 171.5zM1917 483h-799q0 -118 74 -212.5t192 -94.5q191 0 224 174h299q-31 -116 -106.5 -202.5t-182 -132.5t-227.5 -46
q-82 0 -160 20t-144.5 63t-111.5 108q-50 -65 -125 -108t-160.5 -63t-171.5 -20q-178 0 -298 81t-120 253t101 244t274 98q208 31 255 40t83.5 34.5t36.5 81.5q0 141 -199 141q-208 0 -213 -172h-307q7 195 157 287t371 92q111 0 213 -35.5t156 -116.5q66 78 156 115t219 37
q134 0 233.5 -52.5t161 -145t90.5 -213t29 -255.5zM1118 680h492q0 71 -29 130.5t-82.5 95.5t-128.5 36q-76 0 -133 -36.5t-87 -95.5t-32 -130z" />
    <glyph glyph-name="ccedilla" unicode="&#xe7;" horiz-adv-x="1305" 
d="M1196 725h-299q-15 94 -73.5 143.5t-153.5 49.5q-91 0 -150.5 -54t-85.5 -136.5t-26 -174.5q0 -87 25 -167.5t82.5 -132.5t148.5 -52q102 0 164.5 61t78.5 166h297q-26 -212 -163 -330.5t-349 -126.5l-61 -86h4q22 11 74 11q82 0 140 -38.5t58 -113.5
q0 -116 -71.5 -165.5t-180.5 -49.5q-90 0 -139.5 10t-128.5 37l45 105q84 -39 182 -39q86 0 86 73q0 68 -86 68q-44 0 -88 -14l-45 51l109 155q-111 13 -201 59.5t-154.5 121t-99.5 173t-35 214.5q0 174 67.5 312.5t197 216t307.5 77.5q99 0 192.5 -27.5t164.5 -79.5
t116 -133.5t51 -183.5z" />
    <glyph glyph-name="egrave" unicode="&#xe8;" horiz-adv-x="1315" 
d="M1212 483h-804q6 -142 75 -212t199 -70q87 0 156.5 45t85.5 100h270q-63 -193 -195 -285t-329 -92q-130 0 -236 43t-181 122t-114 188t-39 235q0 164 72 300.5t202 214t296 77.5q131 0 234 -48.5t171.5 -133t103.5 -193.5t35 -235q0 -37 -2 -56zM408 680h497
q-20 122 -76.5 180t-166.5 58q-130 0 -190 -75.5t-64 -162.5zM608 1255l-334 308h340l207 -308h-213z" />
    <glyph glyph-name="eacute" unicode="&#xe9;" horiz-adv-x="1315" 
d="M1212 483h-804q6 -142 75 -212t199 -70q87 0 156.5 45t85.5 100h270q-63 -193 -195 -285t-329 -92q-130 0 -236 43t-181 122t-114 188t-39 235q0 164 72 300.5t202 214t296 77.5q131 0 234 -48.5t171.5 -133t103.5 -193.5t35 -235q0 -37 -2 -56zM408 680h497
q-20 122 -76.5 180t-166.5 58q-130 0 -190 -75.5t-64 -162.5zM1042 1563l-332 -308h-215l207 308h340z" />
    <glyph glyph-name="ecircumflex" unicode="&#xea;" horiz-adv-x="1315" 
d="M1212 483h-804q6 -142 75 -212t199 -70q87 0 156.5 45t85.5 100h270q-63 -193 -195 -285t-329 -92q-130 0 -236 43t-181 122t-114 188t-39 235q0 164 72 300.5t202 214t296 77.5q131 0 234 -48.5t171.5 -133t103.5 -193.5t35 -235q0 -37 -2 -56zM408 680h497
q-20 122 -76.5 180t-166.5 58q-130 0 -190 -75.5t-64 -162.5zM278 1255l242 308h280l238 -308h-254l-133 177l-139 -177h-234z" />
    <glyph glyph-name="edieresis" unicode="&#xeb;" horiz-adv-x="1315" 
d="M1212 483h-804q6 -142 75 -212t199 -70q87 0 156.5 45t85.5 100h270q-63 -193 -195 -285t-329 -92q-130 0 -236 43t-181 122t-114 188t-39 235q0 164 72 300.5t202 214t296 77.5q131 0 234 -48.5t171.5 -133t103.5 -193.5t35 -235q0 -37 -2 -56zM408 680h497
q-20 122 -76.5 180t-166.5 58q-130 0 -190 -75.5t-64 -162.5zM735 1290v254h293v-254h-293zM288 1290v254h291v-254h-291z" />
    <glyph glyph-name="igrave" unicode="&#xec;" horiz-adv-x="594" 
d="M143 0v1118h308v-1118h-308zM248 1255l-334 308h340l207 -308h-213z" />
    <glyph glyph-name="iacute" unicode="&#xed;" horiz-adv-x="594" 
d="M143 0v1118h308v-1118h-308zM682 1563l-332 -308h-215l207 308h340z" />
    <glyph glyph-name="icircumflex" unicode="&#xee;" horiz-adv-x="594" 
d="M143 0v1118h308v-1118h-308zM-82 1255l242 308h280l238 -308h-254l-133 177l-139 -177h-234z" />
    <glyph glyph-name="idieresis" unicode="&#xef;" horiz-adv-x="594" 
d="M143 0v1118h308v-1118h-308zM375 1290v254h293v-254h-293zM-72 1290v254h291v-254h-291z" />
    <glyph glyph-name="eth" unicode="&#xf0;" horiz-adv-x="1358" 
d="M678 201q145 0 208.5 102.5t63.5 253.5q0 137 -67.5 234.5t-206.5 97.5q-96 0 -155.5 -48t-86 -122t-26.5 -162q0 -151 63.5 -253.5t206.5 -102.5zM305 1282l232 117q-94 67 -181 108l199 150q116 -64 213 -144l266 136l113 -129l-246 -123q115 -111 194 -232
t120.5 -262.5t41.5 -312.5q0 -132 -41 -245.5t-118 -198t-184.5 -131t-235.5 -46.5q-171 0 -303 71.5t-203.5 200t-71.5 294.5q0 140 54.5 268t167.5 209.5t276 81.5q74 0 149.5 -19.5t141.5 -66.5h6q-57 128 -221 274l-242 -121z" />
    <glyph glyph-name="ntilde" unicode="&#xf1;" horiz-adv-x="1335" 
d="M143 0v1118h293v-155h6q39 62 93.5 103t118.5 62t130 21q121 0 201 -33t125.5 -93t63.5 -142t18 -193v-688h-307v631q0 143 -45.5 208.5t-151.5 65.5q-124 0 -180.5 -75.5t-56.5 -243.5v-586h-308zM918 1544h147q-32 -113 -65 -160q-60 -88 -176 -88q-32 0 -60 5t-67 17
t-49 15q-99 37 -152 37q-41 0 -60.5 -22.5t-31.5 -67.5h-131q26 118 85.5 191t186.5 73q32 0 62.5 -9.5t76.5 -27.5q88 -39 142 -39q47 0 69.5 22t22.5 54z" />
    <glyph glyph-name="ograve" unicode="&#xf2;" horiz-adv-x="1358" 
d="M100 557q0 134 40.5 243t118.5 188t182.5 120t236.5 41t238 -41t182.5 -119t117.5 -188t41 -244q0 -132 -40.5 -240.5t-116.5 -186t-184.5 -119.5t-237.5 -42q-128 0 -235.5 42t-184.5 121t-117.5 186t-40.5 239zM408 557q0 -151 63.5 -253.5t206.5 -102.5
q145 0 208.5 102.5t63.5 253.5q0 98 -26 179.5t-86.5 131.5t-159.5 50q-98 0 -158 -50t-86 -131.5t-26 -179.5zM629 1255l-334 308h340l207 -308h-213z" />
    <glyph glyph-name="oacute" unicode="&#xf3;" horiz-adv-x="1358" 
d="M100 557q0 134 40.5 243t118.5 188t182.5 120t236.5 41t238 -41t182.5 -119t117.5 -188t41 -244q0 -132 -40.5 -240.5t-116.5 -186t-184.5 -119.5t-237.5 -42q-128 0 -235.5 42t-184.5 121t-117.5 186t-40.5 239zM408 557q0 -151 63.5 -253.5t206.5 -102.5
q145 0 208.5 102.5t63.5 253.5q0 98 -26 179.5t-86.5 131.5t-159.5 50q-98 0 -158 -50t-86 -131.5t-26 -179.5zM1063 1563l-332 -308h-215l207 308h340z" />
    <glyph glyph-name="ocircumflex" unicode="&#xf4;" horiz-adv-x="1358" 
d="M100 557q0 134 40.5 243t118.5 188t182.5 120t236.5 41t238 -41t182.5 -119t117.5 -188t41 -244q0 -132 -40.5 -240.5t-116.5 -186t-184.5 -119.5t-237.5 -42q-128 0 -235.5 42t-184.5 121t-117.5 186t-40.5 239zM408 557q0 -151 63.5 -253.5t206.5 -102.5
q145 0 208.5 102.5t63.5 253.5q0 98 -26 179.5t-86.5 131.5t-159.5 50q-98 0 -158 -50t-86 -131.5t-26 -179.5zM299 1255l242 308h280l238 -308h-254l-133 177l-139 -177h-234z" />
    <glyph glyph-name="otilde" unicode="&#xf5;" horiz-adv-x="1358" 
d="M100 557q0 134 40.5 243t118.5 188t182.5 120t236.5 41t238 -41t182.5 -119t117.5 -188t41 -244q0 -132 -40.5 -240.5t-116.5 -186t-184.5 -119.5t-237.5 -42q-128 0 -235.5 42t-184.5 121t-117.5 186t-40.5 239zM408 557q0 -151 63.5 -253.5t206.5 -102.5
q145 0 208.5 102.5t63.5 253.5q0 98 -26 179.5t-86.5 131.5t-159.5 50q-98 0 -158 -50t-86 -131.5t-26 -179.5zM928 1544h147q-32 -113 -65 -160q-60 -88 -176 -88q-32 0 -60 5t-67 17t-49 15q-99 37 -152 37q-41 0 -60.5 -22.5t-31.5 -67.5h-131q26 118 85.5 191t186.5 73
q32 0 62.5 -9.5t76.5 -27.5q88 -39 142 -39q47 0 69.5 22t22.5 54z" />
    <glyph glyph-name="odieresis" unicode="&#xf6;" horiz-adv-x="1358" 
d="M100 557q0 134 40.5 243t118.5 188t182.5 120t236.5 41t238 -41t182.5 -119t117.5 -188t41 -244q0 -132 -40.5 -240.5t-116.5 -186t-184.5 -119.5t-237.5 -42q-128 0 -235.5 42t-184.5 121t-117.5 186t-40.5 239zM408 557q0 -151 63.5 -253.5t206.5 -102.5
q145 0 208.5 102.5t63.5 253.5q0 98 -26 179.5t-86.5 131.5t-159.5 50q-98 0 -158 -50t-86 -131.5t-26 -179.5zM756 1290v254h293v-254h-293zM309 1290v254h291v-254h-291z" />
    <glyph glyph-name="divide" unicode="&#xf7;" horiz-adv-x="1352" 
d="M131 430v232h1090v-232h-1090zM494 995q0 76 53.5 129.5t130.5 53.5q47 0 88.5 -24.5t66.5 -67t25 -91.5q0 -46 -25 -88t-66.5 -68t-86.5 -26q-75 0 -130.5 53.5t-55.5 128.5zM494 98q0 76 54 128.5t130 52.5q47 0 88.5 -24.5t66.5 -66t25 -90.5q0 -70 -53.5 -127
t-124.5 -57q-76 0 -131 54t-55 130z" />
    <glyph glyph-name="oslash" unicode="&#xf8;" horiz-adv-x="1358" 
d="M440 373l418 475q-67 70 -180 70q-98 0 -158 -50t-86 -131.5t-26 -179.5q0 -113 32 -184zM915 754l-421 -480q67 -73 184 -73q145 0 208.5 102.5t63.5 253.5q0 116 -35 197zM113 2l131 148q-71 76 -107.5 180t-36.5 227q0 134 40.5 243t118.5 188t182.5 120t236.5 41
q104 0 192.5 -27t159.5 -78l115 132l80 -68l-117 -133q72 -75 110.5 -181.5t38.5 -236.5q0 -132 -40.5 -240.5t-116.5 -186t-184.5 -119.5t-237.5 -42q-105 0 -195.5 28t-160.5 81l-127 -146z" />
    <glyph glyph-name="ugrave" unicode="&#xf9;" horiz-adv-x="1335" 
d="M1192 1118v-1118h-291v156h-8q-57 -91 -148.5 -139t-191.5 -48q-117 0 -198.5 32.5t-127.5 93.5t-65 143t-19 192v688h308v-631q0 -93 19.5 -154t62.5 -91.5t114 -30.5q125 0 181.5 75.5t56.5 245.5v586h307zM619 1255l-334 308h340l207 -308h-213z" />
    <glyph glyph-name="uacute" unicode="&#xfa;" horiz-adv-x="1335" 
d="M1192 1118v-1118h-291v156h-8q-57 -91 -148.5 -139t-191.5 -48q-117 0 -198.5 32.5t-127.5 93.5t-65 143t-19 192v688h308v-631q0 -93 19.5 -154t62.5 -91.5t114 -30.5q125 0 181.5 75.5t56.5 245.5v586h307zM1053 1563l-332 -308h-215l207 308h340z" />
    <glyph glyph-name="ucircumflex" unicode="&#xfb;" horiz-adv-x="1335" 
d="M1192 1118v-1118h-291v156h-8q-57 -91 -148.5 -139t-191.5 -48q-117 0 -198.5 32.5t-127.5 93.5t-65 143t-19 192v688h308v-631q0 -93 19.5 -154t62.5 -91.5t114 -30.5q125 0 181.5 75.5t56.5 245.5v586h307zM289 1255l242 308h280l238 -308h-254l-133 177l-139 -177
h-234z" />
    <glyph glyph-name="udieresis" unicode="&#xfc;" horiz-adv-x="1335" 
d="M1192 1118v-1118h-291v156h-8q-57 -91 -148.5 -139t-191.5 -48q-117 0 -198.5 32.5t-127.5 93.5t-65 143t-19 192v688h308v-631q0 -93 19.5 -154t62.5 -91.5t114 -30.5q125 0 181.5 75.5t56.5 245.5v586h307zM746 1290v254h293v-254h-293zM299 1290v254h291v-254h-291z
" />
    <glyph glyph-name="yacute" unicode="&#xfd;" horiz-adv-x="1143" 
d="M1145 1118l-467 -1259q-50 -134 -139 -193t-246 -59q-82 0 -189 10v254q45 -3 93.5 -7.5t87.5 -4.5q59 7 88.5 46t29.5 95q0 35 -12 70l-393 1048h328l254 -766h4l243 766h318zM956 1563l-332 -308h-215l207 308h340z" />
    <glyph glyph-name="thorn" unicode="&#xfe;" horiz-adv-x="1370" 
d="M143 -393v1937h308v-569h4q60 92 144 133t208 41q89 0 170 -35.5t147.5 -108.5t106 -185.5t39.5 -260.5q0 -194 -67 -327.5t-172.5 -198t-223.5 -64.5q-106 0 -201.5 42.5t-150.5 125.5h-4v-530h-308zM963 561q0 150 -67 253.5t-196 103.5q-88 -3 -146 -52t-86 -130
t-28 -175q0 -153 66 -256.5t194 -103.5q129 0 196 103.5t67 256.5z" />
    <glyph glyph-name="ydieresis" unicode="&#xff;" horiz-adv-x="1143" 
d="M1145 1118l-467 -1259q-50 -134 -139 -193t-246 -59q-82 0 -189 10v254q45 -3 93.5 -7.5t87.5 -4.5q59 7 88.5 46t29.5 95q0 35 -12 70l-393 1048h328l254 -766h4l243 766h318zM649 1290v254h293v-254h-293zM202 1290v254h291v-254h-291z" />
    <glyph glyph-name="dotlessi" unicode="&#x131;" horiz-adv-x="594" 
d="M143 0v1118h308v-1118h-308z" />
    <glyph glyph-name="Lslash" unicode="&#x141;" horiz-adv-x="1335" 
d="M184 0v463l-174 -121v242l174 121v839h340v-602l455 322v-244l-455 -320v-415h752v-285h-1092z" />
    <glyph glyph-name="lslash" unicode="&#x142;" horiz-adv-x="594" 
d="M143 0v618l-145 -114v221l145 115v704h308v-463l145 115v-221l-145 -115v-860h-308z" />
    <glyph glyph-name="OE" unicode="&#x152;" horiz-adv-x="2497" 
d="M1243 0v117h-4q-67 -74 -166.5 -114t-204.5 -40q-219 0 -383 109t-249.5 292.5t-85.5 399.5q0 161 49 308.5t143.5 263t230 180.5t301.5 65q109 0 207.5 -35.5t157.5 -111.5h4v110h1081v-287h-765v-329h702v-264h-702v-379h782v-285h-1098zM1231 602v367
q0 94 -42.5 168.5t-119 115.5t-172.5 41q-207 0 -307.5 -153.5t-100.5 -372.5q0 -137 42 -254.5t132 -191.5t228 -74q156 0 248 97.5t92 256.5z" />
    <glyph glyph-name="oe" unicode="&#x153;" horiz-adv-x="2058" 
d="M1159 680h492q-5 110 -67 174t-181 64q-72 0 -127 -31.5t-83.5 -85t-33.5 -121.5zM645 201q73 0 122.5 31.5t77 85t38 116.5t10.5 129q0 89 -19 167.5t-73.5 133t-149.5 54.5q-130 0 -186.5 -107t-56.5 -258q0 -140 56.5 -246t180.5 -106zM1958 483h-799
q0 -124 69.5 -203t196.5 -79q163 0 226 153h299q-35 -118 -110.5 -205.5t-182 -133.5t-232.5 -46q-124 0 -233 47t-170 144q-56 -96 -164.5 -143.5t-230.5 -47.5q-127 0 -225.5 46.5t-166.5 130.5t-101.5 190.5t-33.5 228.5q0 121 39.5 229.5t111.5 187.5t174 123t224 44
q78 0 150.5 -18t134 -58t100.5 -102q37 54 99.5 95t134 62t141.5 21q145 0 250 -51.5t171.5 -144t97 -210t30.5 -260.5z" />
    <glyph glyph-name="Scaron" unicode="&#x160;" horiz-adv-x="1466" 
d="M84 512h328q1 -97 47 -161.5t124 -94t173 -29.5q115 0 207 44t92 149q0 60 -37.5 100t-98.5 64.5t-145.5 45.5t-175.5 44q-105 29 -181 58.5t-141 79.5t-102 125.5t-37 176.5q0 150 82.5 256t217 158.5t278.5 52.5q167 0 308 -51.5t225.5 -164.5t84.5 -282h-329
q-7 130 -88.5 182t-217.5 52q-94 0 -163.5 -42.5t-69.5 -133.5q0 -45 18.5 -73t66 -50t147.5 -49.5t229 -61.5q64 -14 134 -36.5t145.5 -71t126 -133t50.5 -207.5q0 -106 -41 -196t-124 -158.5t-201 -105t-275 -36.5q-128 0 -248.5 33.5t-212 101.5t-144 172t-52.5 242z
M1114 1989l-238 -308h-280l-242 308h244l137 -174l141 174h238z" />
    <glyph glyph-name="scaron" unicode="&#x161;" horiz-adv-x="1184" 
d="M76 362h291q1 -93 68 -139.5t167 -46.5q81 0 140 33.5t59 107.5q0 45 -38.5 74.5t-99.5 48t-208 52.5q-164 35 -259.5 100t-95.5 196q0 198 138 279.5t350 81.5q98 0 181.5 -18t150 -59t109.5 -111t52 -170h-293q-10 151 -208 151q-172 0 -172 -102q0 -39 26.5 -64
t77.5 -43t104.5 -30t139.5 -31q163 -36 257.5 -104t94.5 -210q0 -137 -70.5 -225t-185.5 -126t-252 -38q-218 0 -367 94.5t-157 298.5zM973 1563l-238 -308h-280l-242 308h244l137 -174l141 174h238z" />
    <glyph glyph-name="Ydieresis" unicode="&#x178;" horiz-adv-x="1397" 
d="M526 0v602l-569 942h383l362 -610l359 610h379l-574 -952v-592h-340zM776 1716v254h293v-254h-293zM329 1716v254h291v-254h-291z" />
    <glyph glyph-name="Zcaron" unicode="&#x17d;" horiz-adv-x="1462" 
d="M80 0v268l829 989h-764v287h1215v-268l-828 -991h850v-285h-1302zM1112 1989l-238 -308h-280l-242 308h244l137 -174l141 174h238z" />
    <glyph glyph-name="zcaron" unicode="&#x17e;" horiz-adv-x="1163" 
d="M68 0v231l581 656h-538v231h944v-231l-582 -656h623v-231h-1028zM963 1563l-238 -308h-280l-242 308h244l137 -174l141 174h238z" />
    <glyph glyph-name="florin" unicode="&#x192;" 
d="M14 -360l41 231q58 -8 86 -8q79 0 111 36.5t45 116.5l137 713h-201l39 205h197l53 274q26 140 76.5 220.5t138 116.5t230.5 36q90 0 163 -16l-40 -232q-35 17 -86 17q-82 0 -117 -31t-47 -105l-54 -280h211l-34 -205h-215l-121 -670q-31 -158 -75.5 -247.5t-133 -134
t-244.5 -44.5q-76 0 -160 7z" />
    <glyph glyph-name="circumflex" unicode="&#x2c6;" horiz-adv-x="600" 
d="M-80 1255l242 308h280l238 -308h-254l-133 177l-139 -177h-234z" />
    <glyph glyph-name="caron" unicode="&#x2c7;" horiz-adv-x="600" 
d="M680 1563l-238 -308h-280l-242 308h244l137 -174l141 174h238z" />
    <glyph glyph-name="breve" unicode="&#x2d8;" horiz-adv-x="600" 
d="M-63 1573h139q7 -53 41.5 -88.5t80.5 -50.5t93 -15q202 0 235 154h138q-19 -161 -118.5 -239.5t-264.5 -78.5q-157 0 -244.5 80.5t-99.5 237.5z" />
    <glyph glyph-name="dotaccent" unicode="&#x2d9;" horiz-adv-x="600" 
d="M154 1290v254h292v-254h-292z" />
    <glyph glyph-name="ring" unicode="&#x2da;" horiz-adv-x="600" 
d="M164 1419q0 -66 37 -108.5t98 -42.5q62 0 100.5 42.5t38.5 108.5q0 65 -38.5 107.5t-100.5 42.5q-61 0 -98 -42.5t-37 -107.5zM35 1419q0 72 36 132t96.5 95t131.5 35q73 0 133.5 -35t96.5 -95t36 -132q0 -71 -35.5 -132t-96.5 -96.5t-134 -35.5q-71 0 -132 35.5
t-96.5 96.5t-35.5 132z" />
    <glyph glyph-name="ogonek" unicode="&#x2db;" horiz-adv-x="600" 
d="M457 -276l104 -48q-115 -147 -291 -147q-78 0 -153.5 38.5t-75.5 156.5q0 135 246 282h139q-99 -90 -138.5 -152.5t-39.5 -121.5q0 -32 26 -53t58 -21q37 0 68.5 14t56.5 52z" />
    <glyph glyph-name="tilde" unicode="&#x2dc;" horiz-adv-x="600" 
d="M549 1544h147q-32 -113 -65 -160q-60 -88 -176 -88q-32 0 -60 5t-67 17t-49 15q-99 37 -152 37q-41 0 -60.5 -22.5t-31.5 -67.5h-131q26 118 85.5 191t186.5 73q32 0 62.5 -9.5t76.5 -27.5q88 -39 142 -39q47 0 69.5 22t22.5 54z" />
    <glyph glyph-name="hungarumlaut" unicode="&#x2dd;" horiz-adv-x="600" 
d="M436 1563l-323 -308h-213l196 308h340zM883 1563l-322 -308h-215l197 308h340z" />
    <glyph glyph-name="emdash" unicode="&#x2013;" horiz-adv-x="1024" 
d="M0 459v264h1024v-264h-1024z" />
    <glyph glyph-name="endash" unicode="&#x2014;" horiz-adv-x="1352" 
d="M131 430v232h1090v-232h-1090z" />
    <glyph glyph-name="quoteleft" unicode="&#x2018;" horiz-adv-x="528" 
d="M418 1184v-334h-307v330q0 98 40 176.5t109.5 127t157.5 60.5v-143q-77 -25 -110.5 -79t-33.5 -138h144z" />
    <glyph glyph-name="quoteright" unicode="&#x2019;" horiz-adv-x="528" 
d="M111 1210v334h307v-332q0 -96 -40.5 -175t-110.5 -127t-156 -60v143q78 27 109.5 80.5t31.5 136.5h-141z" />
    <glyph glyph-name="quotesinglbase" unicode="&#x201a;" horiz-adv-x="528" 
d="M111 0v334h307v-332q0 -97 -40 -175.5t-111 -127.5t-156 -59v141q78 27 109.5 81t31.5 138h-141z" />
    <glyph glyph-name="quotedblleft" unicode="&#x201c;" horiz-adv-x="958" 
d="M864 1184v-334h-307v330q0 98 40 176.5t109.5 127t157.5 60.5v-143q-78 -25 -110.5 -79t-32.5 -138h143zM401 1184v-334h-307v330q0 98 40 176.5t109.5 127t157.5 60.5v-143q-78 -25 -110.5 -79t-32.5 -138h143z" />
    <glyph glyph-name="quotedblright" unicode="&#x201d;" horiz-adv-x="958" 
d="M557 1210v334h307v-332q0 -98 -40 -176t-110 -126t-157 -60v143q79 27 111 80t32 137h-143zM94 1210v334h307v-332q0 -98 -40 -176t-110 -126t-157 -60v143q80 27 112 80t32 137h-144z" />
    <glyph glyph-name="quotedblbase" unicode="&#x201e;" horiz-adv-x="958" 
d="M557 0v334h307v-332q0 -99 -39.5 -176.5t-110 -126.5t-157.5 -59v141q79 27 111 80.5t32 138.5h-143zM94 0v334h307v-332q0 -99 -39.5 -176.5t-110 -126.5t-157.5 -59v141q80 27 112 80.5t32 138.5h-144z" />
    <glyph glyph-name="dagger" unicode="&#x2020;" horiz-adv-x="1251" 
d="M479 -358v1222h-403v254h403v426h291v-426h406v-254h-406v-1222h-291z" />
    <glyph glyph-name="daggerdbl" unicode="&#x2021;" horiz-adv-x="1251" 
d="M479 -358v417h-403v252h403v553h-403v254h403v426h291v-426h406v-254h-406v-553h406v-252h-406v-417h-291z" />
    <glyph glyph-name="bullet" unicode="&#x2022;" horiz-adv-x="1120" 
d="M174 772q0 104 51.5 193t140 140.5t193.5 51.5q104 0 193.5 -52t141.5 -140t52 -193q0 -106 -52.5 -194.5t-141.5 -140.5t-193 -52q-105 0 -193.5 51.5t-140 141t-51.5 194.5z" />
    <glyph glyph-name="ellipsis" unicode="&#x2026;" horiz-adv-x="2048" 
d="M172 0v334h340v-334h-340zM854 0v334h340v-334h-340zM1536 0v334h340v-334h-340z" />
    <glyph glyph-name="perthousand" unicode="&#x2030;" horiz-adv-x="2474" 
d="M1145 373q0 -121 22 -191.5t99 -70.5q79 0 99.5 60.5t20.5 170.5q0 76 -6.5 122t-32 77.5t-77.5 31.5q-80 0 -102.5 -55.5t-22.5 -144.5zM950 336q0 165 79 271t239 106q166 0 239.5 -101.5t73.5 -273.5q0 -169 -78.5 -269t-236.5 -100q-148 0 -232 100.5t-84 266.5z
M1696 336q0 165 78.5 271t238.5 106q167 0 240.5 -101.5t73.5 -273.5q0 -109 -33 -192t-103.5 -130t-179.5 -47q-147 0 -231 101.5t-84 265.5zM1890 373q0 -121 22 -191.5t99 -70.5q80 0 100.5 60.5t20.5 170.5q0 76 -6.5 121.5t-31.5 77.5t-79 32q-80 0 -102.5 -55.5
t-22.5 -144.5zM147 1165q0 165 79.5 272t238.5 107q87 0 147.5 -28.5t97.5 -79.5t52.5 -118.5t15.5 -150.5q0 -167 -77.5 -266.5t-237.5 -99.5q-148 0 -232 99.5t-84 264.5zM342 1202q0 -120 22 -191t99 -71q80 0 100.5 61t20.5 170q0 115 -20 173.5t-97 58.5
q-55 0 -82.5 -30.5t-35 -71t-7.5 -99.5zM322 -47l895 1608h184l-891 -1608h-188z" />
    <glyph glyph-name="guilsinglleft" unicode="&#x2039;" horiz-adv-x="446" 
d="M393 172l-340 270v293l340 266v-260l-194 -153l194 -156v-260z" />
    <glyph glyph-name="guilsinglright" unicode="&#x203a;" horiz-adv-x="446" 
d="M53 1001l340 -266v-293l-340 -270v260l195 156l-195 153v260z" />
    <glyph glyph-name="fraction" unicode="&#x2044;" horiz-adv-x="346" 
d="M-367 -47l895 1608h185l-891 -1608h-189z" />
    <glyph glyph-name="trademark" unicode="&#x2122;" horiz-adv-x="1843" 
d="M332 772v629h-232v143h633v-143h-231v-629h-170zM848 772v772h239l181 -530h2l170 530h239v-772h-157v547h-4l-189 -547h-131l-188 543h-2v-543h-160z" />
    <glyph glyph-name="minus" unicode="&#x2212;" horiz-adv-x="1352" 
d="M131 430v232h1090v-232h-1090z" />
    <glyph glyph-name="periodcentered" unicode="&#x2219;" horiz-adv-x="623" 
d="M129 621q0 77 53.5 130.5t130.5 53.5q48 0 90 -25.5t66.5 -67t24.5 -91.5q0 -46 -25 -88t-66 -68.5t-88 -26.5q-75 0 -130.5 53.5t-55.5 129.5z" />
    <glyph glyph-name="fi" unicode="&#xf001;" horiz-adv-x="1346" 
d="M1202 1544v-254h-307v254h307zM895 0v1118h307v-1118h-307zM190 0v913h-184v205h184v86q0 99 42 176.5t126 120.5t205 43q41 0 88.5 -3.5t75.5 -4.5v-229q-55 6 -113 6q-61 0 -88.5 -29.5t-27.5 -97.5v-68h211v-205h-211v-913h-308z" />
    <glyph glyph-name="fl" unicode="&#xf002;" horiz-adv-x="1346" 
d="M895 0v1544h307v-1544h-307zM190 0v913h-184v205h184v86q0 99 42 176.5t126 120.5t205 43q41 0 88.5 -3.5t75.5 -4.5v-229q-55 6 -113 6q-61 0 -88.5 -29.5t-27.5 -97.5v-68h211v-205h-211v-913h-308z" />
    </font>
</defs>
</svg>
